<?xml version="1.0" encoding="utf-8"?>
<svg xmlns="http://www.w3.org/2000/svg" height="512pt" version="1.1" viewBox="0 0 512 512" width="512pt">
<path d="M 0.00 0.00 L 498.15 0.00 C 493.64 4.21 489.01 8.33 483.86 11.75 C 477.61 16.17 470.56 19.57 465.15 25.08 C 460.96 29.33 460.17 35.60 459.75 41.27 C 451.66 40.86 443.61 39.86 435.54 39.11 C 428.25 38.21 420.74 38.08 413.77 35.53 C 414.07 34.65 414.42 33.79 414.81 32.94 C 419.90 30.70 425.79 31.15 430.85 28.80 C 432.89 27.61 435.23 25.64 434.89 23.02 C 433.30 20.33 429.79 20.31 427.04 20.21 C 403.79 19.73 380.95 24.71 358.02 27.79 C 347.02 29.41 335.97 30.68 324.97 32.28 C 294.77 36.72 264.20 37.59 233.88 40.92 C 231.37 41.71 225.96 41.23 226.74 45.11 C 230.10 45.85 233.57 45.94 237.00 46.05 C 253.65 45.50 270.32 45.33 286.98 45.18 C 297.30 44.65 307.65 44.65 317.98 45.14 C 341.66 45.37 365.36 45.35 389.03 46.28 C 414.33 46.79 439.66 47.18 464.88 49.36 C 467.36 50.91 469.53 55.45 466.18 57.21 C 458.50 62.67 449.91 67.37 444.15 75.05 C 439.48 81.97 435.72 89.95 435.65 98.45 C 396.06 100.66 356.45 102.90 316.95 106.48 C 314.84 106.82 312.03 106.65 311.14 109.10 C 314.31 111.31 318.37 111.09 322.06 111.33 C 342.72 111.65 363.35 110.35 383.98 109.63 C 402.55 109.22 421.11 107.94 439.68 107.91 C 443.65 113.26 449.18 117.49 455.30 120.10 C 459.04 121.43 463.04 121.97 467.01 121.59 C 476.37 120.76 485.62 118.96 494.87 117.30 C 497.70 116.79 500.46 115.95 503.07 114.72 C 503.90 115.06 504.74 115.38 505.59 115.70 C 506.76 119.16 508.59 122.88 507.47 126.58 C 505.34 129.30 501.80 130.34 498.88 131.99 C 491.25 135.55 484.08 140.19 478.10 146.15 L 478.36 145.11 L 477.45 146.41 C 448.45 147.02 419.42 147.06 390.47 149.09 C 362.31 150.58 334.33 154.20 306.24 156.56 C 300.09 153.39 295.31 148.34 290.29 143.72 C 275.42 131.73 262.87 117.11 247.92 105.21 C 247.66 105.03 247.15 104.68 246.89 104.50 C 243.10 108.84 239.30 113.18 235.22 117.25 C 229.39 123.09 224.52 129.80 218.59 135.55 C 206.83 148.51 194.52 161.01 181.42 172.62 C 164.47 168.44 147.22 165.64 130.09 162.31 C 106.80 157.85 83.40 154.00 59.92 150.76 C 50.98 150.05 42.06 148.43 33.08 148.79 C 25.86 146.61 20.31 141.00 15.97 135.06 C 31.81 137.05 47.44 140.42 63.11 143.43 C 68.33 144.26 73.73 145.19 78.97 144.09 C 80.89 143.87 81.72 141.06 80.14 139.93 C 78.06 138.60 75.56 138.23 73.19 137.75 C 55.23 134.76 37.30 131.06 19.08 130.18 C 20.51 125.81 20.88 121.19 21.23 116.63 C 23.83 116.97 26.43 117.23 29.05 117.24 C 44.69 117.32 60.33 117.57 75.97 117.41 C 78.67 117.23 82.01 117.54 83.76 115.01 C 80.73 111.49 75.59 111.80 71.43 110.88 C 52.57 107.64 33.45 106.70 14.37 105.71 C 10.77 101.53 8.80 94.28 12.72 89.75 C 17.75 87.64 23.56 88.02 28.36 85.29 C 31.26 83.52 33.98 80.74 33.93 77.12 C 35.78 78.40 38.03 78.80 40.19 79.22 C 77.05 86.29 114.76 84.53 152.06 86.22 C 157.80 86.32 163.68 86.32 169.16 84.37 C 168.22 83.33 167.47 81.86 165.97 81.59 C 161.39 80.43 156.64 80.53 151.98 80.00 C 134.69 78.68 117.49 76.27 100.18 75.17 C 94.67 74.47 88.57 74.60 84.00 70.95 C 87.42 68.99 91.96 68.44 94.34 65.04 C 94.34 60.79 89.31 59.82 85.96 59.80 C 64.52 59.24 43.05 59.45 21.61 60.26 C 20.87 57.49 19.97 54.76 18.77 52.16 C 17.10 48.43 13.07 46.36 11.57 42.52 C 10.36 39.54 10.94 36.30 11.15 33.20 C 45.44 31.85 79.74 33.31 114.01 34.08 C 156.45 34.81 198.94 35.12 241.36 33.38 C 241.45 32.48 241.54 31.58 241.64 30.68 C 226.20 28.63 210.57 28.76 195.04 27.75 C 164.68 26.91 134.32 25.89 104.01 23.79 C 93.68 23.36 83.37 22.50 73.02 22.25 C 51.65 21.06 30.23 21.98 8.84 21.41 C 6.85 14.37 2.97 8.08 0.00 1.44 L 0.00 0.00 Z" fill="#025e81" opacity="1.00" stroke="#025e81" stroke-width="0.25"/>
<path d="M 498.15 0.00 L 512.00 0.00 L 512.00 25.41 C 507.11 28.58 501.65 31.40 498.37 36.42 C 492.99 44.60 490.41 54.16 487.65 63.44 C 483.97 79.02 466.17 85.10 460.60 99.65 C 458.87 103.94 458.99 108.68 459.74 113.17 C 459.98 114.98 460.21 116.80 460.46 118.61 C 458.73 119.10 457.01 119.59 455.30 120.10 C 449.18 117.49 443.65 113.26 439.68 107.91 C 438.03 104.90 436.68 101.72 435.65 98.45 C 435.72 89.95 439.48 81.97 444.15 75.05 C 449.91 67.37 458.50 62.67 466.18 57.21 C 469.53 55.45 467.36 50.91 464.88 49.36 C 463.25 46.62 461.60 43.88 459.75 41.27 C 460.17 35.60 460.96 29.33 465.15 25.08 C 470.56 19.57 477.61 16.17 483.86 11.75 C 489.01 8.33 493.64 4.21 498.15 0.00 Z" fill="#e0bc27" opacity="1.00" stroke="#e0bc27" stroke-width="0.25"/>
<path d="M 0.00 1.44 C 2.97 8.08 6.85 14.37 8.84 21.41 C 9.82 25.30 10.81 29.20 11.15 33.20 C 10.94 36.30 10.36 39.54 11.57 42.52 C 13.07 46.36 17.10 48.43 18.77 52.16 C 19.97 54.76 20.87 57.49 21.61 60.26 C 22.42 63.51 23.02 67.05 25.35 69.63 C 27.89 72.47 31.00 74.71 33.93 77.12 C 33.98 80.74 31.26 83.52 28.36 85.29 C 23.56 88.02 17.75 87.64 12.72 89.75 C 8.80 94.28 10.77 101.53 14.37 105.71 C 17.10 109.04 19.71 112.57 21.23 116.63 C 20.88 121.19 20.51 125.81 19.08 130.18 C 17.96 131.75 16.72 133.27 15.97 135.06 C 20.31 141.00 25.86 146.61 33.08 148.79 C 42.68 155.15 52.65 161.06 61.38 168.62 C 66.88 173.59 71.73 180.31 71.54 188.04 C 71.62 192.38 69.06 196.18 66.21 199.24 C 61.34 204.41 54.66 207.37 48.04 209.62 C 46.91 208.75 45.78 207.89 44.65 207.03 C 48.16 203.61 48.24 198.28 47.05 193.83 C 45.20 187.50 41.04 182.08 36.08 177.84 C 25.43 168.65 12.37 163.01 0.00 156.58 L 0.00 135.68 C 1.82 137.29 3.64 139.16 6.06 139.79 C 8.46 138.10 8.72 134.65 7.70 132.10 C 6.48 128.42 3.34 125.84 0.00 124.10 L 0.00 1.44 Z" fill="#dfbc28" opacity="1.00" stroke="#dfbc28" stroke-width="0.25"/>
<path d="M 358.02 27.79 C 380.95 24.71 403.79 19.73 427.04 20.21 C 429.79 20.31 433.30 20.33 434.89 23.02 C 435.23 25.64 432.89 27.61 430.85 28.80 C 425.79 31.15 419.90 30.70 414.81 32.94 C 414.42 33.79 414.07 34.65 413.77 35.53 C 420.74 38.08 428.25 38.21 435.54 39.11 C 443.61 39.86 451.66 40.86 459.75 41.27 C 461.60 43.88 463.25 46.62 464.88 49.36 C 439.66 47.18 414.33 46.79 389.03 46.28 C 365.36 45.35 341.66 45.37 317.98 45.14 C 307.65 44.65 297.30 44.65 286.98 45.18 C 270.32 45.33 253.65 45.50 237.00 46.05 C 233.57 45.94 230.10 45.85 226.74 45.11 C 225.96 41.23 231.37 41.71 233.88 40.92 C 264.20 37.59 294.77 36.72 324.97 32.28 C 335.97 30.68 347.02 29.41 358.02 27.79 Z" fill="#fefefe" opacity="1.00" stroke="#fefefe" stroke-width="0.25"/>
<path d="M 8.84 21.41 C 30.23 21.98 51.65 21.06 73.02 22.25 C 83.37 22.50 93.68 23.36 104.01 23.79 C 134.32 25.89 164.68 26.91 195.04 27.75 C 210.57 28.76 226.20 28.63 241.64 30.68 C 241.54 31.58 241.45 32.48 241.36 33.38 C 198.94 35.12 156.45 34.81 114.01 34.08 C 79.74 33.31 45.44 31.85 11.15 33.20 C 10.81 29.20 9.82 25.30 8.84 21.41 Z" fill="#fefefe" opacity="1.00" stroke="#fefefe" stroke-width="0.25"/>
<path d="M 498.37 36.42 C 501.65 31.40 507.11 28.58 512.00 25.41 L 512.00 103.63 C 509.20 107.18 505.82 110.98 505.59 115.70 C 504.74 115.38 503.90 115.06 503.07 114.72 C 494.89 110.24 484.97 111.00 476.56 114.39 C 472.60 115.79 468.65 118.20 464.30 117.64 C 462.35 116.67 461.11 114.77 459.74 113.17 C 458.99 108.68 458.87 103.94 460.60 99.65 C 466.17 85.10 483.97 79.02 487.65 63.44 C 490.41 54.16 492.99 44.60 498.37 36.42 Z" fill="#102b25" opacity="1.00" stroke="#102b25" stroke-width="0.25"/>
<path d="M 21.61 60.26 C 43.05 59.45 64.52 59.24 85.96 59.80 C 89.31 59.82 94.34 60.79 94.34 65.04 C 91.96 68.44 87.42 68.99 84.00 70.95 C 88.57 74.60 94.67 74.47 100.18 75.17 C 117.49 76.27 134.69 78.68 151.98 80.00 C 156.64 80.53 161.39 80.43 165.97 81.59 C 167.47 81.86 168.22 83.33 169.16 84.37 C 163.68 86.32 157.80 86.32 152.06 86.22 C 114.76 84.53 77.05 86.29 40.19 79.22 C 38.03 78.80 35.78 78.40 33.93 77.12 C 31.00 74.71 27.89 72.47 25.35 69.63 C 23.02 67.05 22.42 63.51 21.61 60.26 Z" fill="#fefefe" opacity="1.00" stroke="#fefefe" stroke-width="0.25"/>
<path d="M 316.95 106.48 C 356.45 102.90 396.06 100.66 435.65 98.45 C 436.68 101.72 438.03 104.90 439.68 107.91 C 421.11 107.94 402.55 109.22 383.98 109.63 C 363.35 110.35 342.72 111.65 322.06 111.33 C 318.37 111.09 314.31 111.31 311.14 109.10 C 312.03 106.65 314.84 106.82 316.95 106.48 Z" fill="#fefefd" opacity="1.00" stroke="#fefefd" stroke-width="0.25"/>
<path d="M 505.59 115.70 C 505.82 110.98 509.20 107.18 512.00 103.63 L 512.00 142.92 C 505.86 150.12 498.64 156.47 493.64 164.60 C 491.64 167.95 490.18 172.03 491.19 175.95 C 491.86 178.41 494.83 178.98 497.01 179.27 C 502.49 179.48 507.38 176.44 512.00 173.86 L 512.00 222.40 C 498.53 228.35 483.61 233.02 473.64 244.51 C 469.38 249.10 467.93 255.67 469.14 261.73 C 468.84 262.09 468.24 262.79 467.94 263.15 C 467.51 264.28 467.09 265.43 466.66 266.56 C 466.97 266.83 467.58 267.37 467.89 267.64 C 466.58 267.80 465.26 267.95 463.96 268.12 C 458.71 263.31 452.86 258.63 449.91 251.97 C 446.95 245.34 448.67 237.11 453.85 232.08 C 464.45 226.26 474.93 219.99 484.04 211.97 C 487.46 208.95 490.95 204.81 489.78 199.89 C 489.30 195.58 484.74 194.15 481.29 192.84 C 473.89 190.34 466.93 186.54 461.04 181.39 C 458.92 178.32 456.82 174.87 457.25 170.97 C 457.00 166.54 459.90 162.85 463.01 160.05 C 467.89 155.59 473.33 151.63 477.45 146.41 L 478.36 145.11 L 478.10 146.15 C 484.08 140.19 491.25 135.55 498.88 131.99 C 501.80 130.34 505.34 129.30 507.47 126.58 C 508.59 122.88 506.76 119.16 505.59 115.70 Z" fill="#e0bc28" opacity="1.00" stroke="#e0bc28" stroke-width="0.25"/>
<path d="M 235.22 117.25 C 239.30 113.18 243.10 108.84 246.89 104.50 C 247.15 104.68 247.66 105.03 247.92 105.21 C 245.15 109.85 241.50 113.86 238.05 117.98 C 226.89 131.18 215.09 143.81 202.97 156.12 C 185.94 173.15 168.37 189.62 151.09 206.39 C 151.72 204.65 152.00 202.81 151.98 200.96 C 161.80 191.52 171.66 182.12 181.42 172.62 C 194.52 161.01 206.83 148.51 218.59 135.55 C 224.52 129.80 229.39 123.09 235.22 117.25 Z" fill="#083340" opacity="1.00" stroke="#083340" stroke-width="0.25"/>
<path d="M 14.37 105.71 C 33.45 106.70 52.57 107.64 71.43 110.88 C 75.59 111.80 80.73 111.49 83.76 115.01 C 82.01 117.54 78.67 117.23 75.97 117.41 C 60.33 117.57 44.69 117.32 29.05 117.24 C 26.43 117.23 23.83 116.97 21.23 116.63 C 19.71 112.57 17.10 109.04 14.37 105.71 Z" fill="#fefefd" opacity="1.00" stroke="#fefefd" stroke-width="0.25"/>
<path d="M 238.05 117.98 C 241.50 113.86 245.15 109.85 247.92 105.21 C 247.12 109.85 249.26 114.28 249.56 118.87 C 251.75 133.97 252.13 149.23 253.33 164.42 C 249.56 164.70 245.78 164.88 242.05 165.46 C 240.37 165.23 239.77 166.72 239.48 168.02 C 239.80 162.28 240.19 156.37 238.31 150.83 C 235.26 154.37 232.67 158.49 228.59 160.97 C 229.39 153.28 233.48 146.29 233.57 138.49 C 228.00 146.50 226.20 156.34 222.36 165.17 C 221.30 167.60 219.60 170.01 216.89 170.72 C 212.17 172.09 207.70 174.13 203.10 175.82 C 204.33 173.14 205.87 170.62 207.62 168.24 C 211.03 162.89 215.79 158.58 219.19 153.24 C 214.96 154.21 210.86 155.68 206.91 157.46 C 205.11 158.06 203.79 157.61 202.97 156.12 C 215.09 143.81 226.89 131.18 238.05 117.98 Z" fill="#fefefe" opacity="1.00" stroke="#fefefe" stroke-width="0.25"/>
<path d="M 247.92 105.21 C 262.87 117.11 275.42 131.73 290.29 143.72 C 295.31 148.34 300.09 153.39 306.24 156.56 C 311.38 159.85 316.17 163.66 320.95 167.43 C 323.13 169.80 325.30 172.19 327.88 174.13 C 338.54 182.33 348.65 191.21 359.24 199.49 C 358.00 200.16 356.76 200.83 355.53 201.50 C 346.79 194.56 338.07 187.58 329.21 180.79 C 320.17 173.90 312.16 165.76 303.07 158.94 C 299.65 156.37 296.58 153.38 293.13 150.86 C 293.29 152.50 292.89 154.46 294.24 155.71 C 297.63 159.72 301.75 163.19 304.24 167.91 C 302.96 168.30 301.69 168.69 300.42 169.09 C 298.20 166.48 295.64 164.21 293.28 161.75 C 291.56 159.92 289.84 158.07 288.50 155.95 C 288.98 153.58 290.96 151.84 292.28 149.89 C 281.28 138.80 269.37 128.66 258.05 117.90 C 255.83 115.74 253.49 113.69 250.99 111.85 C 253.07 119.34 258.26 125.31 262.00 131.98 C 267.27 141.59 273.51 150.63 278.65 160.31 C 280.57 163.96 282.05 167.82 284.10 171.41 C 287.88 179.04 291.71 186.66 296.22 193.89 C 295.73 194.79 295.25 195.70 294.78 196.60 C 294.10 196.08 293.42 195.57 292.75 195.06 C 292.19 195.20 291.08 195.48 290.53 195.62 C 290.13 198.18 289.67 200.73 289.30 203.29 C 288.46 199.27 288.08 195.17 287.40 191.12 C 286.40 184.73 283.08 179.08 280.60 173.20 C 277.78 166.58 275.23 159.78 271.15 153.81 C 264.69 144.19 259.77 133.66 253.43 123.97 C 254.77 147.18 256.20 170.40 258.86 193.50 C 259.08 194.99 260.58 195.77 261.54 196.77 C 259.95 196.27 258.36 195.84 256.77 195.41 C 256.36 198.61 256.33 202.04 254.25 204.70 C 254.84 191.26 253.98 177.83 253.33 164.42 C 252.13 149.23 251.75 133.97 249.56 118.87 C 249.26 114.28 247.12 109.85 247.92 105.21 Z" fill="#04283c" opacity="1.00" stroke="#04283c" stroke-width="0.25"/>
<path d="M 250.99 111.85 C 253.49 113.69 255.83 115.74 258.05 117.90 C 269.37 128.66 281.28 138.80 292.28 149.89 C 290.96 151.84 288.98 153.58 288.50 155.95 C 289.84 158.07 291.56 159.92 293.28 161.75 C 291.99 162.28 290.71 162.81 289.43 163.34 C 289.84 164.15 290.25 164.95 290.66 165.77 C 290.12 166.78 289.55 167.79 289.12 168.86 C 290.00 170.86 291.50 172.49 292.84 174.19 C 291.53 175.09 290.23 176.00 288.94 176.90 C 287.66 174.83 286.74 172.07 284.10 171.41 C 282.05 167.82 280.57 163.96 278.65 160.31 C 273.51 150.63 267.27 141.59 262.00 131.98 C 258.26 125.31 253.07 119.34 250.99 111.85 Z" fill="#f3a469" opacity="1.00" stroke="#f3a469" stroke-width="0.25"/>
<path d="M 476.56 114.39 C 484.97 111.00 494.89 110.24 503.07 114.72 C 500.46 115.95 497.70 116.79 494.87 117.30 C 485.62 118.96 476.37 120.76 467.01 121.59 C 463.04 121.97 459.04 121.43 455.30 120.10 C 457.01 119.59 458.73 119.10 460.46 118.61 C 460.21 116.80 459.98 114.98 459.74 113.17 C 461.11 114.77 462.35 116.67 464.30 117.64 C 468.65 118.20 472.60 115.79 476.56 114.39 Z" fill="#f1b92a" opacity="1.00" stroke="#f1b92a" stroke-width="0.25"/>
<path d="M 253.43 123.97 C 259.77 133.66 264.69 144.19 271.15 153.81 C 275.23 159.78 277.78 166.58 280.60 173.20 C 283.08 179.08 286.40 184.73 287.40 191.12 C 288.08 195.17 288.46 199.27 289.30 203.29 C 288.65 203.69 288.00 204.09 287.36 204.49 C 287.19 204.23 286.85 203.72 286.68 203.46 C 285.60 205.40 284.64 208.00 282.04 208.18 C 279.92 207.56 278.01 206.41 276.07 205.39 C 275.96 204.97 275.74 204.14 275.64 203.73 C 273.92 198.01 273.33 191.47 268.67 187.20 C 267.67 191.96 269.95 196.36 271.13 200.84 C 271.18 201.54 271.28 202.93 271.33 203.63 C 267.33 202.50 264.57 199.37 261.54 196.77 C 260.58 195.77 259.08 194.99 258.86 193.50 C 256.20 170.40 254.77 147.18 253.43 123.97 Z" fill="#f6b17d" opacity="1.00" stroke="#f6b17d" stroke-width="0.25"/>
<path d="M 0.00 124.10 C 3.34 125.84 6.48 128.42 7.70 132.10 C 8.72 134.65 8.46 138.10 6.06 139.79 C 3.64 139.16 1.82 137.29 0.00 135.68 L 0.00 124.10 Z" fill="#0a2a20" opacity="1.00" stroke="#0a2a20" stroke-width="0.25"/>
<path d="M 19.08 130.18 C 37.30 131.06 55.23 134.76 73.19 137.75 C 75.56 138.23 78.06 138.60 80.14 139.93 C 81.72 141.06 80.89 143.87 78.97 144.09 C 73.73 145.19 68.33 144.26 63.11 143.43 C 47.44 140.42 31.81 137.05 15.97 135.06 C 16.72 133.27 17.96 131.75 19.08 130.18 Z" fill="#fefefd" opacity="1.00" stroke="#fefefd" stroke-width="0.25"/>
<path d="M 222.36 165.17 C 226.20 156.34 228.00 146.50 233.57 138.49 C 233.48 146.29 229.39 153.28 228.59 160.97 C 232.67 158.49 235.26 154.37 238.31 150.83 C 240.19 156.37 239.80 162.28 239.48 168.02 C 238.76 182.13 236.89 196.14 234.71 210.09 C 234.07 215.02 231.20 220.07 233.17 225.02 C 235.68 232.03 236.88 239.42 239.37 246.44 C 241.43 252.18 241.54 258.33 243.00 264.20 C 244.90 255.99 244.71 247.50 245.57 239.15 C 246.55 232.21 249.80 225.88 251.49 219.12 C 252.79 214.39 253.33 209.50 254.25 204.70 C 256.33 202.04 256.36 198.61 256.77 195.41 C 258.36 195.84 259.95 196.27 261.54 196.77 C 264.57 199.37 267.33 202.50 271.33 203.63 C 271.28 202.93 271.18 201.54 271.13 200.84 C 271.47 201.70 271.84 202.55 272.21 203.41 C 273.35 203.51 274.49 203.61 275.64 203.73 C 275.74 204.14 275.96 204.97 276.07 205.39 C 277.06 209.24 278.58 212.96 280.65 216.35 C 281.99 219.09 285.89 219.03 287.15 221.85 C 289.63 226.82 288.97 232.59 289.19 237.96 C 288.99 246.74 292.57 255.76 289.19 264.32 C 287.54 268.13 287.20 272.29 287.79 276.38 C 292.03 273.42 295.53 269.22 300.59 267.58 C 303.97 266.26 308.21 265.58 310.14 262.11 C 310.99 260.02 311.42 257.14 309.62 255.41 C 308.38 253.98 306.88 252.81 305.43 251.62 C 306.82 249.92 308.98 250.44 310.88 250.47 C 310.45 249.84 310.02 249.22 309.59 248.59 C 311.74 245.58 314.40 242.99 317.42 240.86 C 320.05 241.24 322.70 241.39 325.35 241.64 C 328.79 243.55 332.42 245.13 335.83 247.10 C 338.88 248.80 338.66 252.72 339.78 255.60 C 341.02 260.07 344.45 263.51 348.38 265.79 C 353.78 269.05 357.96 273.85 363.00 277.59 L 363.66 277.65 C 364.20 277.68 365.28 277.74 365.82 277.76 C 368.04 282.68 368.19 288.29 370.96 292.98 C 366.74 293.93 362.47 294.80 358.52 296.63 C 348.15 301.26 338.37 307.07 328.31 312.33 C 312.40 320.79 296.55 329.38 280.34 337.26 C 279.16 337.01 277.97 336.77 276.80 336.53 C 262.33 330.43 248.03 323.96 233.95 317.01 C 229.86 315.22 225.63 312.46 220.96 313.53 C 214.33 314.77 207.73 316.92 200.91 316.50 C 195.63 310.60 188.57 306.86 182.08 302.50 C 172.79 304.52 163.77 308.16 154.10 307.91 C 155.41 306.58 156.71 305.23 158.01 303.88 C 153.25 297.12 147.54 291.12 141.97 285.02 C 128.62 294.12 115.66 303.83 101.50 311.67 C 102.15 306.35 99.95 301.33 98.73 296.26 C 98.12 293.07 95.28 291.24 93.07 289.19 C 81.74 290.23 71.31 295.02 60.74 298.85 C 55.72 300.76 50.30 300.98 45.00 301.33 C 40.70 298.99 36.31 296.76 31.64 295.25 C 29.49 294.56 27.33 293.78 25.51 292.41 C 34.42 292.33 43.35 295.13 52.24 293.20 C 59.07 291.44 63.77 285.66 67.57 280.08 C 69.49 278.10 74.26 276.39 72.17 272.96 L 72.67 272.45 C 73.27 272.59 74.48 272.88 75.08 273.02 C 80.30 269.72 84.42 265.06 88.80 260.78 C 109.46 240.42 130.94 220.92 151.98 200.96 C 152.00 202.81 151.72 204.65 151.09 206.39 C 150.28 207.48 149.36 208.53 148.84 209.81 C 149.22 214.84 150.68 219.96 149.31 224.96 C 148.13 228.87 144.99 231.67 142.40 234.67 C 137.66 241.21 130.66 246.06 127.27 253.53 C 136.09 251.73 140.83 243.67 146.39 237.48 C 157.61 225.63 168.69 213.63 179.14 201.09 C 187.17 190.81 194.63 179.92 200.14 168.06 C 201.55 167.12 202.97 166.17 204.38 165.22 C 205.37 165.17 206.36 165.13 207.35 165.09 C 207.44 166.14 207.53 167.19 207.62 168.24 C 205.87 170.62 204.33 173.14 203.10 175.82 C 207.70 174.13 212.17 172.09 216.89 170.72 C 219.60 170.01 221.30 167.60 222.36 165.17 Z" fill="#03364f" opacity="1.00" stroke="#03364f" stroke-width="0.25"/>
<path d="M 493.64 164.60 C 498.64 156.47 505.86 150.12 512.00 142.92 L 512.00 173.86 C 507.38 176.44 502.49 179.48 497.01 179.27 C 494.83 178.98 491.86 178.41 491.19 175.95 C 490.18 172.03 491.64 167.95 493.64 164.60 Z" fill="#0d2b26" opacity="1.00" stroke="#0d2b26" stroke-width="0.25"/>
<path d="M 390.47 149.09 C 419.42 147.06 448.45 147.02 477.45 146.41 C 473.33 151.63 467.89 155.59 463.01 160.05 C 459.90 162.85 457.00 166.54 457.25 170.97 C 456.82 174.87 458.92 178.32 461.04 181.39 C 455.76 180.03 450.29 179.76 444.91 179.04 C 411.27 175.44 377.75 170.57 343.96 168.59 C 336.28 168.41 328.63 167.74 320.95 167.43 C 316.17 163.66 311.38 159.85 306.24 156.56 C 334.33 154.20 362.31 150.58 390.47 149.09 Z" fill="#fefefe" opacity="1.00" stroke="#fefefe" stroke-width="0.25"/>
<path d="M 33.08 148.79 C 42.06 148.43 50.98 150.05 59.92 150.76 C 83.40 154.00 106.80 157.85 130.09 162.31 C 147.22 165.64 164.47 168.44 181.42 172.62 C 171.66 182.12 161.80 191.52 151.98 200.96 C 130.94 220.92 109.46 240.42 88.80 260.78 C 84.42 265.06 80.30 269.72 75.08 273.02 C 74.48 272.88 73.27 272.59 72.67 272.45 C 71.88 263.13 64.12 256.64 56.32 252.72 C 47.46 248.53 38.24 245.04 29.67 240.25 C 27.75 239.33 26.81 237.37 26.03 235.52 C 23.95 229.63 19.54 225.06 15.83 220.18 C 11.95 215.10 7.53 210.47 3.37 205.63 C 3.56 205.35 3.95 204.80 4.15 204.52 C 8.10 204.16 12.15 203.19 16.08 204.26 C 22.15 205.70 27.78 208.53 33.82 210.11 C 38.48 211.22 43.44 210.99 48.04 209.62 C 54.66 207.37 61.34 204.41 66.21 199.24 C 69.06 196.18 71.62 192.38 71.54 188.04 C 71.73 180.31 66.88 173.59 61.38 168.62 C 52.65 161.06 42.68 155.15 33.08 148.79 Z" fill="#fefefe" opacity="1.00" stroke="#fefefe" stroke-width="0.25"/>
<path d="M 293.13 150.86 C 296.58 153.38 299.65 156.37 303.07 158.94 C 312.16 165.76 320.17 173.90 329.21 180.79 C 338.07 187.58 346.79 194.56 355.53 201.50 C 365.38 209.35 375.16 217.28 384.89 225.28 C 392.64 231.93 400.84 238.07 408.47 244.85 C 405.11 246.16 401.65 247.26 398.06 247.73 C 394.69 244.33 390.46 242.03 386.53 239.39 C 384.05 237.68 380.93 237.65 378.15 236.71 C 375.50 233.12 373.38 229.00 369.61 226.36 C 363.84 222.22 358.42 217.59 353.60 212.37 C 351.02 209.71 348.91 206.40 345.60 204.58 C 340.42 202.74 335.07 200.79 330.98 196.98 C 328.66 194.51 327.87 191.09 326.73 188.00 C 324.94 191.10 323.42 194.35 322.25 197.73 C 320.60 194.43 318.67 191.30 316.63 188.24 C 312.46 181.48 308.34 174.70 304.24 167.91 C 301.75 163.19 297.63 159.72 294.24 155.71 C 292.89 154.46 293.29 152.50 293.13 150.86 Z" fill="#f0a46d" opacity="1.00" stroke="#f0a46d" stroke-width="0.25"/>
<path d="M 206.91 157.46 C 210.86 155.68 214.96 154.21 219.19 153.24 C 215.79 158.58 211.03 162.89 207.62 168.24 C 207.53 167.19 207.44 166.14 207.35 165.09 C 206.36 165.13 205.37 165.17 204.38 165.22 C 202.97 166.17 201.55 167.12 200.14 168.06 C 201.91 164.28 203.43 160.06 206.91 157.46 Z" fill="#063046" opacity="1.00" stroke="#063046" stroke-width="0.25"/>
<path d="M 151.09 206.39 C 168.37 189.62 185.94 173.15 202.97 156.12 C 203.79 157.61 205.11 158.06 206.91 157.46 C 203.43 160.06 201.91 164.28 200.14 168.06 C 194.63 179.92 187.17 190.81 179.14 201.09 C 168.69 213.63 157.61 225.63 146.39 237.48 C 145.35 237.50 144.32 237.53 143.30 237.55 C 143.07 236.83 142.63 235.39 142.40 234.67 C 144.99 231.67 148.13 228.87 149.31 224.96 C 150.68 219.96 149.22 214.84 148.84 209.81 C 149.36 208.53 150.28 207.48 151.09 206.39 Z" fill="#fac596" opacity="1.00" stroke="#fac596" stroke-width="0.25"/>
<path d="M 0.00 156.58 C 12.37 163.01 25.43 168.65 36.08 177.84 C 41.04 182.08 45.20 187.50 47.05 193.83 C 48.24 198.28 48.16 203.61 44.65 207.03 C 38.07 206.85 32.29 203.39 25.97 202.01 C 20.16 200.70 14.04 199.64 8.14 200.89 C 6.18 201.21 5.26 203.12 4.15 204.52 C 3.95 204.80 3.56 205.35 3.37 205.63 C 2.25 205.63 1.12 205.63 0.00 205.64 L 0.00 156.58 Z" fill="#112c26" opacity="1.00" stroke="#112c26" stroke-width="0.25"/>
<path d="M 289.43 163.34 C 290.71 162.81 291.99 162.28 293.28 161.75 C 295.64 164.21 298.20 166.48 300.42 169.09 C 306.13 177.06 311.05 185.64 315.48 194.39 C 315.59 194.66 315.82 195.20 315.93 195.48 C 313.57 197.56 312.55 200.45 311.64 203.35 C 309.92 204.08 308.01 204.11 306.24 204.65 C 302.20 201.79 298.61 198.26 296.22 193.89 C 291.71 186.66 287.88 179.04 284.10 171.41 C 286.74 172.07 287.66 174.83 288.94 176.90 C 290.23 176.00 291.53 175.09 292.84 174.19 C 291.50 172.49 290.00 170.86 289.12 168.86 C 289.55 167.79 290.12 166.78 290.66 165.77 C 290.25 164.95 289.84 164.15 289.43 163.34 Z" fill="#f2a774" opacity="1.00" stroke="#f2a774" stroke-width="0.25"/>
<path d="M 242.05 165.46 C 245.78 164.88 249.56 164.70 253.33 164.42 C 253.98 177.83 254.84 191.26 254.25 204.70 C 253.33 209.50 252.79 214.39 251.49 219.12 C 249.80 225.88 246.55 232.21 245.57 239.15 C 244.71 247.50 244.90 255.99 243.00 264.20 C 241.54 258.33 241.43 252.18 239.37 246.44 C 236.88 239.42 235.68 232.03 233.17 225.02 C 231.20 220.07 234.07 215.02 234.71 210.09 C 236.89 196.14 238.76 182.13 239.48 168.02 C 239.77 166.72 240.37 165.23 242.05 165.46 Z" fill="#fbc596" opacity="1.00" stroke="#fbc596" stroke-width="0.25"/>
<path d="M 320.95 167.43 C 328.63 167.74 336.28 168.41 343.96 168.59 C 377.75 170.57 411.27 175.44 444.91 179.04 C 450.29 179.76 455.76 180.03 461.04 181.39 C 466.93 186.54 473.89 190.34 481.29 192.84 C 484.74 194.15 489.30 195.58 489.78 199.89 C 490.95 204.81 487.46 208.95 484.04 211.97 C 474.93 219.99 464.45 226.26 453.85 232.08 C 439.28 233.82 424.55 233.63 409.93 234.79 C 409.15 234.99 407.58 235.40 406.80 235.60 C 404.28 234.40 401.79 233.07 399.67 231.23 C 393.99 226.49 388.18 221.90 382.20 217.55 C 374.86 211.14 366.72 205.74 359.24 199.49 C 348.65 191.21 338.54 182.33 327.88 174.13 C 325.30 172.19 323.13 169.80 320.95 167.43 Z" fill="#025c80" opacity="1.00" stroke="#025c80" stroke-width="0.25"/>
<path d="M 300.42 169.09 C 301.69 168.69 302.96 168.30 304.24 167.91 C 308.34 174.70 312.46 181.48 316.63 188.24 C 315.34 190.04 315.34 192.27 315.48 194.39 C 311.05 185.64 306.13 177.06 300.42 169.09 Z" fill="#021e31" opacity="1.00" stroke="#021e31" stroke-width="0.25"/>
<path d="M 271.13 200.84 C 269.95 196.36 267.67 191.96 268.67 187.20 C 273.33 191.47 273.92 198.01 275.64 203.73 C 274.49 203.61 273.35 203.51 272.21 203.41 C 271.84 202.55 271.47 201.70 271.13 200.84 Z" fill="#01283f" opacity="1.00" stroke="#01283f" stroke-width="0.25"/>
<path d="M 322.25 197.73 C 323.42 194.35 324.94 191.10 326.73 188.00 C 327.87 191.09 328.66 194.51 330.98 196.98 C 335.07 200.79 340.42 202.74 345.60 204.58 C 348.91 206.40 351.02 209.71 353.60 212.37 C 358.42 217.59 363.84 222.22 369.61 226.36 C 373.38 229.00 375.50 233.12 378.15 236.71 C 380.93 237.65 384.05 237.68 386.53 239.39 C 390.46 242.03 394.69 244.33 398.06 247.73 C 401.65 247.26 405.11 246.16 408.47 244.85 C 400.84 238.07 392.64 231.93 384.89 225.28 C 385.14 224.69 385.63 223.53 385.87 222.94 C 384.64 221.14 383.46 219.32 382.20 217.55 C 388.18 221.90 393.99 226.49 399.67 231.23 C 401.79 233.07 404.28 234.40 406.80 235.60 C 413.50 240.80 420.43 245.70 426.98 251.10 C 435.08 257.41 442.77 264.24 451.19 270.13 C 459.45 276.98 468.09 283.95 478.68 286.74 C 456.57 296.52 435.69 308.77 414.52 320.38 C 413.83 320.53 412.47 320.84 411.79 321.00 C 417.40 316.22 424.09 313.05 430.35 309.26 C 439.47 303.86 448.84 298.90 458.25 294.01 C 443.51 289.15 428.79 284.19 413.92 279.75 C 411.52 278.79 409.23 280.39 407.03 281.15 C 395.40 286.19 383.39 290.40 370.96 292.98 C 368.19 288.29 368.04 282.68 365.82 277.76 C 365.28 277.74 364.20 277.68 363.66 277.65 C 363.91 275.35 364.58 273.00 364.21 270.69 C 360.75 265.52 355.11 262.56 350.45 258.67 C 346.69 255.79 346.53 250.64 343.86 247.00 C 341.60 243.36 337.81 240.44 337.15 235.99 C 335.99 231.36 336.02 226.10 332.74 222.32 C 329.72 218.64 326.68 214.98 323.76 211.23 C 319.98 206.63 318.39 200.79 315.93 195.48 C 315.82 195.20 315.59 194.66 315.48 194.39 C 315.34 192.27 315.34 190.04 316.63 188.24 C 318.67 191.30 320.60 194.43 322.25 197.73 Z" fill="#01273a" opacity="1.00" stroke="#01273a" stroke-width="0.25"/>
<path d="M 296.22 193.89 C 298.61 198.26 302.20 201.79 306.24 204.65 C 309.47 207.37 312.11 210.75 315.59 213.18 C 317.39 214.45 319.35 215.76 320.20 217.91 C 323.39 224.12 322.01 231.30 323.35 237.93 C 323.60 239.35 324.54 240.49 325.35 241.64 C 322.70 241.39 320.05 241.24 317.42 240.86 C 314.40 242.99 311.74 245.58 309.59 248.59 C 310.02 249.22 310.45 249.84 310.88 250.47 C 308.98 250.44 306.82 249.92 305.43 251.62 C 302.57 249.21 299.28 246.97 297.53 243.57 C 295.56 235.21 295.33 226.55 294.39 218.04 C 292.64 213.15 289.35 208.70 289.30 203.29 C 289.67 200.73 290.13 198.18 290.53 195.62 C 291.08 195.48 292.19 195.20 292.75 195.06 C 293.42 195.57 294.10 196.08 294.78 196.60 C 295.25 195.70 295.73 194.79 296.22 193.89 Z" fill="#023046" opacity="1.00" stroke="#023046" stroke-width="0.25"/>
<path d="M 311.64 203.35 C 312.55 200.45 313.57 197.56 315.93 195.48 C 318.39 200.79 319.98 206.63 323.76 211.23 C 326.68 214.98 329.72 218.64 332.74 222.32 C 336.02 226.10 335.99 231.36 337.15 235.99 C 337.81 240.44 341.60 243.36 343.86 247.00 C 346.53 250.64 346.69 255.79 350.45 258.67 C 355.11 262.56 360.75 265.52 364.21 270.69 C 364.58 273.00 363.91 275.35 363.66 277.65 L 363.00 277.59 C 357.96 273.85 353.78 269.05 348.38 265.79 C 344.45 263.51 341.02 260.07 339.78 255.60 C 338.66 252.72 338.88 248.80 335.83 247.10 C 332.42 245.13 328.79 243.55 325.35 241.64 C 324.54 240.49 323.60 239.35 323.35 237.93 C 322.01 231.30 323.39 224.12 320.20 217.91 C 319.35 215.76 317.39 214.45 315.59 213.18 C 312.11 210.75 309.47 207.37 306.24 204.65 C 308.01 204.11 309.92 204.08 311.64 203.35 Z" fill="#f8b684" opacity="1.00" stroke="#f8b684" stroke-width="0.25"/>
<path d="M 355.53 201.50 C 356.76 200.83 358.00 200.16 359.24 199.49 C 366.72 205.74 374.86 211.14 382.20 217.55 C 383.46 219.32 384.64 221.14 385.87 222.94 C 385.63 223.53 385.14 224.69 384.89 225.28 C 375.16 217.28 365.38 209.35 355.53 201.50 Z" fill="#132639" opacity="1.00" stroke="#132639" stroke-width="0.25"/>
<path d="M 4.15 204.52 C 5.26 203.12 6.18 201.21 8.14 200.89 C 14.04 199.64 20.16 200.70 25.97 202.01 C 32.29 203.39 38.07 206.85 44.65 207.03 C 45.78 207.89 46.91 208.75 48.04 209.62 C 43.44 210.99 38.48 211.22 33.82 210.11 C 27.78 208.53 22.15 205.70 16.08 204.26 C 12.15 203.19 8.10 204.16 4.15 204.52 Z" fill="#e9ba2a" opacity="1.00" stroke="#e9ba2a" stroke-width="0.25"/>
<path d="M 282.04 208.18 C 284.64 208.00 285.60 205.40 286.68 203.46 C 286.85 203.72 287.19 204.23 287.36 204.49 C 288.00 204.09 288.65 203.69 289.30 203.29 C 289.35 208.70 292.64 213.15 294.39 218.04 C 295.33 226.55 295.56 235.21 297.53 243.57 C 299.28 246.97 302.57 249.21 305.43 251.62 C 306.88 252.81 308.38 253.98 309.62 255.41 C 311.42 257.14 310.99 260.02 310.14 262.11 C 308.21 265.58 303.97 266.26 300.59 267.58 C 295.53 269.22 292.03 273.42 287.79 276.38 C 287.20 272.29 287.54 268.13 289.19 264.32 C 292.57 255.76 288.99 246.74 289.19 237.96 C 288.97 232.59 289.63 226.82 287.15 221.85 C 285.89 219.03 281.99 219.09 280.65 216.35 C 278.58 212.96 277.06 209.24 276.07 205.39 C 278.01 206.41 279.92 207.56 282.04 208.18 Z" fill="#fbbe8e" opacity="1.00" stroke="#fbbe8e" stroke-width="0.25"/>
<path d="M 0.00 205.64 C 1.12 205.63 2.25 205.63 3.37 205.63 C 7.53 210.47 11.95 215.10 15.83 220.18 C 19.54 225.06 23.95 229.63 26.03 235.52 C 17.19 231.30 8.57 226.63 0.00 221.88 L 0.00 205.64 Z" fill="#09597d" opacity="1.00" stroke="#09597d" stroke-width="0.25"/>
<path d="M 0.00 221.88 C 8.57 226.63 17.19 231.30 26.03 235.52 C 26.81 237.37 27.75 239.33 29.67 240.25 C 38.24 245.04 47.46 248.53 56.32 252.72 C 64.12 256.64 71.88 263.13 72.67 272.45 L 72.17 272.96 C 70.14 274.98 68.69 277.47 67.57 280.08 C 63.77 285.66 59.07 291.44 52.24 293.20 C 43.35 295.13 34.42 292.33 25.51 292.41 C 27.33 293.78 29.49 294.56 31.64 295.25 C 36.31 296.76 40.70 298.99 45.00 301.33 C 46.08 304.75 46.63 308.29 46.84 311.87 C 45.45 313.74 43.82 315.56 43.10 317.83 C 43.64 318.43 44.20 319.01 44.78 319.58 C 41.56 319.17 42.20 323.41 41.19 325.40 C 40.21 322.23 39.35 319.02 38.36 315.85 C 37.93 313.70 35.75 312.83 33.94 312.13 C 26.35 309.42 18.36 307.99 10.80 305.20 C 7.21 303.89 3.63 302.57 0.00 301.37 L 0.00 286.76 C 2.23 284.64 4.92 282.46 5.00 279.10 C 6.07 274.52 3.12 270.66 0.00 267.75 L 0.00 261.09 C 2.75 264.29 5.69 267.37 7.83 271.04 C 9.29 273.27 10.39 275.83 12.44 277.61 C 16.27 279.60 20.75 279.21 24.91 279.77 C 31.72 280.36 37.92 283.46 44.11 286.12 C 47.08 287.32 50.44 288.41 53.63 287.47 C 58.60 285.20 59.93 278.62 57.97 273.88 C 55.86 267.71 49.81 264.13 44.01 262.01 C 37.55 259.36 30.09 259.62 24.08 255.87 C 18.32 252.42 19.17 244.65 15.22 239.82 C 11.82 234.01 5.25 231.82 0.00 228.18 L 0.00 221.88 Z" fill="#e0bc27" opacity="1.00" stroke="#e0bc27" stroke-width="0.25"/>
<path d="M 473.64 244.51 C 483.61 233.02 498.53 228.35 512.00 222.40 L 512.00 271.12 L 511.60 271.42 C 510.39 266.34 508.49 261.45 506.12 256.81 C 494.87 255.02 486.76 264.50 477.04 268.11 C 472.84 269.64 470.07 265.16 469.14 261.73 C 467.93 255.67 469.38 249.10 473.64 244.51 Z" fill="#102b26" opacity="1.00" stroke="#102b26" stroke-width="0.25"/>
<path d="M 0.00 228.18 C 5.25 231.82 11.82 234.01 15.22 239.82 C 19.17 244.65 18.32 252.42 24.08 255.87 C 30.09 259.62 37.55 259.36 44.01 262.01 C 49.81 264.13 55.86 267.71 57.97 273.88 C 59.93 278.62 58.60 285.20 53.63 287.47 C 50.44 288.41 47.08 287.32 44.11 286.12 C 37.92 283.46 31.72 280.36 24.91 279.77 C 20.75 279.21 16.27 279.60 12.44 277.61 C 10.39 275.83 9.29 273.27 7.83 271.04 C 5.69 267.37 2.75 264.29 0.00 261.09 L 0.00 228.18 Z" fill="#102b26" opacity="1.00" stroke="#102b26" stroke-width="0.25"/>
<path d="M 409.93 234.79 C 424.55 233.63 439.28 233.82 453.85 232.08 C 448.67 237.11 446.95 245.34 449.91 251.97 C 452.86 258.63 458.71 263.31 463.96 268.12 C 464.23 268.42 464.78 269.04 465.05 269.35 C 460.41 269.19 455.81 269.93 451.19 270.13 C 442.77 264.24 435.08 257.41 426.98 251.10 C 420.43 245.70 413.50 240.80 406.80 235.60 C 407.58 235.40 409.15 234.99 409.93 234.79 Z" fill="#fefefe" opacity="1.00" stroke="#fefefe" stroke-width="0.25"/>
<path d="M 127.27 253.53 C 130.66 246.06 137.66 241.21 142.40 234.67 C 142.63 235.39 143.07 236.83 143.30 237.55 C 144.32 237.53 145.35 237.50 146.39 237.48 C 140.83 243.67 136.09 251.73 127.27 253.53 Z" fill="#fccda7" opacity="1.00" stroke="#fccda7" stroke-width="0.25"/>
<path d="M 477.04 268.11 C 486.76 264.50 494.87 255.02 506.12 256.81 C 501.51 261.93 495.26 265.07 489.28 268.27 C 481.90 272.14 472.62 273.42 465.05 269.35 C 464.78 269.04 464.23 268.42 463.96 268.12 C 465.26 267.95 466.58 267.80 467.89 267.64 C 467.58 267.37 466.97 266.83 466.66 266.56 C 467.09 265.43 467.51 264.28 467.94 263.15 C 468.24 262.79 468.84 262.09 469.14 261.73 C 470.07 265.16 472.84 269.64 477.04 268.11 Z" fill="#f4b61e" opacity="1.00" stroke="#f4b61e" stroke-width="0.25"/>
<path d="M 506.12 256.81 C 508.49 261.45 510.39 266.34 511.60 271.42 C 501.12 277.43 490.47 283.73 478.68 286.74 C 468.09 283.95 459.45 276.98 451.19 270.13 C 455.81 269.93 460.41 269.19 465.05 269.35 C 472.62 273.42 481.90 272.14 489.28 268.27 C 495.26 265.07 501.51 261.93 506.12 256.81 Z" fill="#006188" opacity="1.00" stroke="#006188" stroke-width="0.25"/>
<path d="M 0.00 267.75 C 3.12 270.66 6.07 274.52 5.00 279.10 C 4.92 282.46 2.23 284.64 0.00 286.76 L 0.00 267.75 Z" fill="#50713c" opacity="1.00" stroke="#50713c" stroke-width="0.25"/>
<path d="M 511.60 271.42 L 512.00 271.12 L 512.00 291.80 C 497.87 299.56 483.28 306.48 468.93 313.82 C 461.75 317.71 453.99 321.37 448.86 327.97 C 444.96 333.27 442.23 339.99 443.47 346.66 C 444.57 350.28 448.92 350.39 452.04 350.52 C 464.85 350.60 477.26 346.72 490.00 345.89 C 492.59 345.75 496.10 346.11 497.07 348.99 C 498.05 352.83 495.66 356.46 493.04 359.03 C 485.13 365.37 475.66 369.43 467.73 375.76 C 457.14 383.25 448.49 393.92 444.80 406.47 C 444.13 409.52 443.07 413.74 446.06 415.93 C 447.97 417.52 450.60 416.63 452.50 415.52 C 455.84 413.61 458.96 411.31 461.93 408.86 C 463.69 407.35 465.43 405.38 465.48 402.93 C 464.48 398.86 461.38 395.38 461.64 391.00 C 461.55 386.20 464.50 381.98 468.19 379.18 C 475.44 372.96 484.36 369.33 492.51 364.52 C 496.72 362.05 501.07 359.84 505.49 357.78 C 507.66 356.81 509.85 355.88 512.00 354.86 L 512.00 365.49 C 509.90 366.51 507.72 367.37 505.43 367.83 C 493.35 369.36 481.10 374.90 473.84 384.97 C 470.27 389.57 469.73 396.26 472.73 401.29 C 475.08 404.99 480.63 404.64 483.09 407.98 C 480.51 413.51 476.26 418.22 473.87 423.91 C 468.61 436.00 467.26 449.25 464.83 462.09 C 462.83 472.35 462.28 482.81 460.58 493.12 C 459.61 499.39 458.59 505.67 458.01 512.00 L 426.54 512.00 C 427.50 506.75 428.80 500.79 433.62 497.70 C 438.95 494.83 445.20 493.79 450.09 490.09 C 452.01 488.93 452.58 485.76 450.70 484.34 C 448.42 482.43 445.43 481.80 442.79 480.58 C 443.65 479.41 444.52 478.25 445.40 477.09 C 444.21 472.84 441.88 469.09 439.69 465.31 C 440.37 463.90 441.03 462.50 441.63 461.06 C 441.34 460.70 440.76 459.97 440.47 459.60 C 440.62 454.68 443.30 450.45 444.98 445.97 C 446.52 441.07 443.53 436.63 441.22 432.58 C 441.06 432.34 440.76 431.85 440.61 431.60 C 435.74 430.17 430.68 428.62 426.91 425.04 C 422.20 420.37 419.23 413.60 420.40 406.90 C 420.69 400.76 424.55 395.69 428.52 391.33 C 429.06 390.72 429.61 390.11 430.16 389.51 C 433.50 385.86 437.98 383.52 441.54 380.09 C 446.04 376.84 451.00 374.28 455.54 371.08 C 460.08 367.68 460.93 361.67 462.99 356.73 C 454.63 355.77 446.39 353.54 437.91 354.36 C 436.75 354.06 435.60 353.74 434.44 353.46 C 424.91 351.98 416.79 345.02 412.31 336.70 C 410.62 331.45 409.96 324.42 414.52 320.38 C 435.69 308.77 456.57 296.52 478.68 286.74 C 490.47 283.73 501.12 277.43 511.60 271.42 Z" fill="#e1bb29" opacity="1.00" stroke="#e1bb29" stroke-width="0.25"/>
<path d="M 67.57 280.08 C 68.69 277.47 70.14 274.98 72.17 272.96 C 74.26 276.39 69.49 278.10 67.57 280.08 Z" fill="#fefefe" opacity="1.00" stroke="#fefefe" stroke-width="0.25"/>
<path d="M 407.03 281.15 C 409.23 280.39 411.52 278.79 413.92 279.75 C 428.79 284.19 443.51 289.15 458.25 294.01 C 448.84 298.90 439.47 303.86 430.35 309.26 C 424.09 313.05 417.40 316.22 411.79 321.00 C 412.47 320.84 413.83 320.53 414.52 320.38 C 409.96 324.42 410.62 331.45 412.31 336.70 C 416.79 345.02 424.91 351.98 434.44 353.46 C 433.96 355.37 433.56 357.30 433.34 359.26 C 432.95 359.54 432.16 360.11 431.76 360.39 C 431.47 361.00 430.88 362.22 430.58 362.83 C 430.70 363.51 430.93 364.85 431.04 365.53 C 429.85 365.05 428.64 364.60 427.44 364.17 C 427.90 363.36 428.36 362.56 428.84 361.76 C 428.11 361.48 426.67 360.93 425.95 360.65 C 424.98 359.02 423.99 357.40 422.99 355.81 C 421.53 358.19 420.20 360.66 418.86 363.12 C 419.05 363.62 419.42 364.64 419.60 365.15 C 418.72 365.39 417.84 365.64 416.96 365.89 C 417.25 366.72 417.54 367.55 417.84 368.38 C 417.18 368.44 415.85 368.54 415.18 368.60 C 415.34 367.93 415.51 367.27 415.68 366.61 C 414.44 364.39 415.05 361.20 412.36 359.97 C 412.50 359.24 412.64 358.52 412.80 357.81 C 411.66 356.57 410.58 355.29 409.53 354.00 C 408.56 355.71 407.58 357.40 406.67 359.14 C 407.49 359.18 409.13 359.25 409.95 359.29 C 408.47 359.86 407.08 360.63 406.11 361.90 C 406.87 362.25 408.39 362.94 409.15 363.28 C 407.42 363.19 405.70 363.11 403.98 363.01 L 405.87 361.81 C 404.69 361.31 403.50 360.84 402.32 360.41 C 401.69 358.93 401.05 357.45 400.41 355.99 C 399.64 356.49 398.09 357.49 397.32 358.00 C 397.45 358.76 397.70 360.29 397.82 361.06 C 397.20 361.26 395.95 361.65 395.33 361.84 C 395.49 362.27 395.80 363.13 395.95 363.56 C 392.09 364.22 396.21 367.28 396.87 369.09 C 395.77 368.21 394.69 367.32 393.62 366.43 C 393.39 367.03 392.93 368.24 392.70 368.84 C 392.57 368.44 392.30 367.64 392.16 367.24 C 390.97 367.40 389.79 367.57 388.61 367.73 C 388.21 368.96 387.82 370.20 387.43 371.44 C 386.53 372.58 385.66 373.75 384.80 374.91 C 384.30 372.84 385.00 369.70 382.18 369.29 C 382.62 369.03 383.51 368.50 383.96 368.24 C 382.48 366.04 381.08 363.79 379.69 361.53 C 378.68 362.87 377.75 364.25 376.83 365.65 C 377.16 366.63 377.49 367.60 377.82 368.59 C 376.69 369.01 375.57 369.44 374.45 369.86 C 374.97 370.45 376.01 371.62 376.53 372.20 C 375.93 372.56 374.74 373.28 374.14 373.64 C 374.21 375.19 374.28 376.75 374.34 378.31 C 372.97 377.49 371.70 376.50 370.64 375.29 C 370.21 375.47 369.35 375.83 368.92 376.01 C 367.95 374.94 366.83 374.03 365.63 373.25 C 365.40 372.69 364.92 371.57 364.68 371.01 C 363.96 370.88 362.51 370.63 361.79 370.50 C 360.62 372.91 359.78 375.65 357.61 377.39 C 356.71 376.00 356.78 373.12 354.45 373.64 C 354.22 374.32 353.77 375.68 353.54 376.36 C 352.42 375.30 351.28 374.25 350.18 373.19 C 349.74 373.30 348.85 373.53 348.41 373.65 C 347.80 371.77 347.14 369.91 346.48 368.06 C 345.95 368.10 344.90 368.18 344.37 368.23 C 343.09 370.39 341.80 372.55 340.54 374.74 C 339.93 373.02 339.32 371.31 338.66 369.61 C 336.13 371.84 335.30 375.21 333.97 378.17 C 333.22 377.07 333.33 374.97 331.88 374.62 C 331.69 375.07 331.30 375.99 331.11 376.44 C 330.38 375.91 329.67 374.78 328.68 375.48 C 327.51 376.99 326.50 378.64 325.18 380.04 C 324.73 379.00 324.32 377.97 323.95 376.92 C 321.80 375.22 318.94 375.57 318.13 378.46 C 317.41 378.42 315.97 378.34 315.25 378.30 C 315.22 377.52 315.16 375.97 315.13 375.20 C 313.80 375.29 312.47 375.38 311.15 375.48 C 311.16 374.55 311.18 372.71 311.19 371.78 C 310.80 371.75 310.02 371.70 309.63 371.67 C 309.20 370.35 308.77 369.04 308.34 367.73 C 307.36 368.71 306.37 369.70 305.38 370.68 C 305.34 371.16 305.26 372.13 305.22 372.62 C 303.90 372.19 302.59 371.79 301.28 371.39 C 301.29 372.85 301.32 374.31 301.39 375.78 C 300.42 376.10 299.45 376.43 298.48 376.76 C 298.76 375.94 299.05 375.13 299.34 374.32 C 298.95 373.92 298.19 373.11 297.80 372.70 C 297.06 369.76 295.73 367.02 294.32 364.35 C 293.93 364.39 293.15 364.46 292.76 364.50 C 291.41 367.52 289.79 370.44 287.56 372.91 C 285.99 370.09 284.44 367.26 282.91 364.42 C 282.12 364.82 281.34 365.22 280.56 365.63 C 278.92 367.38 277.87 369.48 277.89 371.95 C 277.55 371.63 276.87 371.01 276.53 370.69 C 276.03 370.99 275.02 371.58 274.52 371.88 C 274.63 370.99 274.85 369.22 274.97 368.33 C 274.44 368.30 273.39 368.24 272.86 368.21 C 272.83 367.45 272.77 365.92 272.74 365.16 C 272.32 364.88 271.46 364.33 271.04 364.06 C 270.77 363.31 270.25 361.83 269.98 361.08 C 269.01 362.68 268.43 365.03 266.14 365.05 C 265.93 366.43 265.75 367.82 265.59 369.21 C 265.03 369.30 263.90 369.47 263.33 369.56 C 263.35 370.14 263.40 371.29 263.42 371.87 C 263.13 372.39 262.56 373.45 262.27 373.98 C 260.31 370.47 258.21 367.03 255.73 363.86 C 255.13 365.36 254.56 366.88 254.01 368.40 C 253.62 368.44 252.83 368.51 252.43 368.54 C 252.91 366.81 253.38 365.08 253.84 363.35 C 253.09 363.47 251.59 363.72 250.84 363.84 C 250.78 363.30 250.65 362.23 250.59 361.70 C 249.25 360.36 248.53 358.62 248.16 356.80 C 247.99 355.64 247.81 354.47 247.64 353.31 C 250.55 352.11 253.44 350.83 256.22 349.34 C 255.64 349.25 254.48 349.05 253.91 348.96 C 262.89 345.44 271.62 341.35 280.34 337.26 C 296.55 329.38 312.40 320.79 328.31 312.33 C 338.37 307.07 348.15 301.26 358.52 296.63 C 362.47 294.80 366.74 293.93 370.96 292.98 C 383.39 290.40 395.40 286.19 407.03 281.15 Z" fill="#fac596" opacity="1.00" stroke="#fac596" stroke-width="0.25"/>
<path d="M 101.50 311.67 C 115.66 303.83 128.62 294.12 141.97 285.02 C 147.54 291.12 153.25 297.12 158.01 303.88 C 156.71 305.23 155.41 306.58 154.10 307.91 C 163.77 308.16 172.79 304.52 182.08 302.50 C 188.57 306.86 195.63 310.60 200.91 316.50 C 207.73 316.92 214.33 314.77 220.96 313.53 C 225.63 312.46 229.86 315.22 233.95 317.01 C 248.03 323.96 262.33 330.43 276.80 336.53 C 260.13 343.81 243.15 350.40 226.61 357.96 C 225.75 355.14 223.93 352.81 221.84 350.80 C 221.09 352.61 220.37 354.44 219.68 356.28 C 219.05 356.42 217.79 356.71 217.16 356.85 C 217.33 357.68 217.67 359.35 217.84 360.18 C 217.18 360.25 215.87 360.41 215.21 360.49 C 215.99 361.13 217.53 362.42 218.30 363.07 C 215.93 363.28 213.23 363.12 211.71 365.36 C 211.10 365.22 210.50 365.07 209.90 364.91 C 210.69 364.50 212.26 363.67 213.04 363.26 C 211.49 362.17 209.96 361.10 208.45 359.96 C 208.14 357.30 206.93 354.94 205.10 353.01 C 204.10 355.22 202.30 357.44 203.12 360.02 C 202.57 359.93 201.46 359.74 200.91 359.65 C 201.19 360.29 201.77 361.56 202.05 362.20 C 201.35 362.33 199.93 362.60 199.22 362.74 C 200.18 363.34 201.15 363.93 202.13 364.52 C 200.20 364.11 198.74 364.63 198.80 366.79 C 199.93 367.48 201.21 368.01 202.41 368.61 C 201.51 368.54 199.73 368.40 198.83 368.33 C 198.77 368.96 198.66 370.21 198.60 370.84 C 197.74 370.26 196.87 369.67 196.01 369.10 C 196.59 368.19 197.68 367.51 197.76 366.37 C 197.20 366.27 196.07 366.06 195.50 365.96 C 195.17 364.68 194.59 363.53 193.74 362.53 C 192.77 360.95 191.87 359.33 190.99 357.72 C 189.71 359.46 188.73 361.38 188.02 363.42 C 187.30 363.36 185.88 363.23 185.16 363.16 C 185.43 363.74 185.97 364.91 186.24 365.49 C 185.19 365.92 183.10 366.76 182.05 367.18 C 184.09 366.94 186.12 366.58 188.13 366.16 C 187.61 366.43 186.58 366.99 186.07 367.27 C 186.24 367.69 186.57 368.53 186.73 368.95 C 185.17 368.44 183.58 368.01 181.98 367.63 C 181.63 369.20 181.30 370.79 180.98 372.38 C 179.62 371.63 178.25 370.89 176.89 370.16 C 177.15 369.64 177.68 368.61 177.94 368.09 C 177.77 367.40 177.41 366.04 177.24 365.35 C 176.70 364.71 176.16 364.08 175.63 363.45 C 174.98 363.50 173.68 363.61 173.04 363.67 C 172.07 362.14 171.15 360.60 170.34 358.99 C 169.86 359.18 168.88 359.58 168.39 359.77 C 168.43 359.14 168.51 357.88 168.55 357.25 C 167.08 356.45 166.82 354.83 166.45 353.37 C 165.52 352.21 164.58 351.06 163.62 349.93 C 162.83 351.76 162.39 353.70 162.19 355.69 C 161.68 355.90 160.66 356.34 160.15 356.56 C 160.20 357.08 160.28 358.12 160.32 358.64 C 160.78 358.94 161.70 359.54 162.16 359.84 C 161.31 359.82 159.61 359.80 158.76 359.79 C 159.13 360.49 159.85 361.89 160.22 362.59 C 159.44 362.50 157.88 362.32 157.10 362.22 C 157.69 363.43 158.28 364.64 158.88 365.85 C 158.34 365.71 157.25 365.44 156.70 365.31 L 156.59 366.81 C 156.56 366.36 156.51 365.46 156.48 365.02 C 155.84 365.18 154.57 365.52 153.93 365.68 C 154.52 364.80 155.12 363.92 155.73 363.06 C 152.24 363.02 152.52 359.09 151.49 356.75 C 149.67 358.18 148.61 360.26 147.44 362.21 C 147.84 362.56 148.64 363.26 149.04 363.61 C 147.52 363.78 146.00 363.96 144.49 364.15 C 143.09 359.94 141.73 355.69 139.60 351.78 C 139.13 353.34 138.67 354.91 138.22 356.49 C 136.20 355.94 135.61 356.77 136.24 358.60 C 135.67 358.54 134.54 358.43 133.98 358.37 C 134.05 360.32 135.04 361.40 136.95 361.61 C 136.76 362.02 136.39 362.85 136.20 363.27 C 134.42 363.40 132.63 363.53 130.85 363.64 C 131.54 363.03 132.22 362.43 132.91 361.83 C 132.78 361.14 132.53 359.76 132.40 359.07 C 131.61 359.15 130.04 359.30 129.25 359.38 C 129.75 358.59 130.25 357.81 130.76 357.03 C 129.82 355.36 128.91 353.68 128.04 351.98 C 127.17 353.42 126.28 354.85 125.36 356.27 C 125.77 357.39 126.18 358.51 126.59 359.65 C 126.27 359.21 125.62 358.34 125.30 357.91 C 124.62 358.13 123.28 358.57 122.61 358.80 C 122.41 357.37 121.59 356.32 120.41 355.56 C 120.53 354.80 120.77 353.27 120.88 352.51 C 120.36 352.23 119.32 351.66 118.79 351.38 C 118.37 350.43 117.93 349.50 117.48 348.57 C 116.27 351.72 115.71 355.25 113.10 357.65 C 114.27 357.79 115.43 357.98 116.58 358.22 C 115.82 358.37 114.29 358.68 113.53 358.83 C 113.85 359.27 114.48 360.15 114.80 360.59 C 111.61 360.21 108.40 360.46 105.20 360.61 C 106.74 359.67 108.27 358.73 109.81 357.80 C 106.87 356.76 103.85 355.89 100.75 355.50 C 102.33 355.02 103.87 354.40 105.31 353.58 C 101.80 353.02 105.41 347.63 101.04 348.82 C 101.45 348.42 102.27 347.62 102.68 347.21 C 102.49 346.80 102.12 345.97 101.93 345.55 C 100.36 346.58 98.72 347.49 97.01 348.27 C 95.82 344.10 93.88 340.20 91.21 336.78 C 90.09 339.12 88.91 341.45 87.43 343.60 C 87.41 344.26 87.37 345.60 87.34 346.26 C 86.91 346.27 86.03 346.28 85.59 346.29 C 85.68 348.38 84.42 349.64 82.61 350.40 C 81.75 349.95 80.88 349.52 80.02 349.09 C 80.92 347.59 81.81 346.08 82.70 344.58 C 81.49 344.45 80.28 344.33 79.07 344.21 C 78.96 342.87 78.83 341.52 78.72 340.18 C 78.41 340.12 77.80 339.98 77.49 339.92 C 77.72 338.16 76.74 336.79 75.66 335.53 C 75.48 334.81 75.12 333.35 74.93 332.63 C 73.52 334.48 72.15 336.36 70.63 338.14 C 71.28 338.56 72.57 339.39 73.21 339.81 C 71.84 340.51 70.48 341.21 69.11 341.91 C 69.65 343.00 70.19 344.08 70.74 345.17 C 70.17 344.95 69.04 344.51 68.47 344.29 C 68.53 343.52 68.63 341.98 68.69 341.21 C 66.91 341.41 65.13 341.60 63.35 341.79 C 65.20 340.28 67.35 338.92 68.12 336.52 C 67.34 336.44 65.79 336.29 65.02 336.21 C 64.44 333.97 63.88 331.73 63.40 329.47 C 62.60 327.95 61.80 326.43 61.02 324.91 C 59.81 326.05 58.63 327.22 57.41 328.35 C 56.89 326.51 56.43 324.66 56.04 322.80 C 55.16 323.03 54.28 323.26 53.40 323.49 C 53.45 322.25 53.49 321.01 53.54 319.78 C 53.11 319.78 52.25 319.79 51.82 319.79 C 51.43 316.19 46.76 315.72 46.84 311.87 C 46.63 308.29 46.08 304.75 45.00 301.33 C 50.30 300.98 55.72 300.76 60.74 298.85 C 71.31 295.02 81.74 290.23 93.07 289.19 C 95.28 291.24 98.12 293.07 98.73 296.26 C 99.95 301.33 102.15 306.35 101.50 311.67 Z" fill="#fac597" opacity="1.00" stroke="#fac597" stroke-width="0.25"/>
<path d="M 468.93 313.82 C 483.28 306.48 497.87 299.56 512.00 291.80 L 512.00 354.86 C 509.85 355.88 507.66 356.81 505.49 357.78 C 503.11 357.78 500.77 357.31 498.47 356.79 C 496.96 358.27 495.41 360.82 493.04 359.03 C 495.66 356.46 498.05 352.83 497.07 348.99 C 496.10 346.11 492.59 345.75 490.00 345.89 C 477.26 346.72 464.85 350.60 452.04 350.52 C 448.92 350.39 444.57 350.28 443.47 346.66 C 442.23 339.99 444.96 333.27 448.86 327.97 C 453.99 321.37 461.75 317.71 468.93 313.82 Z" fill="#102b26" opacity="1.00" stroke="#102b26" stroke-width="0.25"/>
<path d="M 0.00 301.37 C 3.63 302.57 7.21 303.89 10.80 305.20 C 18.36 307.99 26.35 309.42 33.94 312.13 C 35.75 312.83 37.93 313.70 38.36 315.85 C 39.35 319.02 40.21 322.23 41.19 325.40 C 41.15 325.57 41.06 325.90 41.01 326.07 C 40.22 326.58 39.42 327.08 38.61 327.58 C 38.97 328.48 39.33 329.37 39.68 330.28 C 26.48 322.10 12.65 314.87 0.00 305.82 L 0.00 301.37 Z" fill="#092622" opacity="1.00" stroke="#092622" stroke-width="0.25"/>
<path d="M 158.48 305.44 C 159.04 306.00 159.04 306.00 158.48 305.44 Z" fill="#bcb49a" opacity="1.00" stroke="#bcb49a" stroke-width="0.25"/>
<path d="M 0.00 305.82 C 12.65 314.87 26.48 322.10 39.68 330.28 C 49.52 336.43 59.79 341.91 69.04 348.95 C 74.10 352.62 79.00 356.61 82.86 361.58 C 87.52 368.77 87.82 378.65 82.79 385.74 C 76.57 394.24 65.81 398.09 55.57 398.32 C 54.75 396.79 53.92 395.27 53.07 393.77 C 54.31 389.97 56.15 386.06 55.34 381.97 C 54.37 375.89 49.45 371.68 45.85 367.06 C 41.48 361.78 38.92 354.87 33.02 350.98 C 23.16 344.11 11.09 342.05 0.00 337.99 L 0.00 305.82 Z" fill="#91a930" opacity="1.00" stroke="#91a930" stroke-width="0.25"/>
<path d="M 43.10 317.83 C 43.82 315.56 45.45 313.74 46.84 311.87 C 46.76 315.72 51.43 316.19 51.82 319.79 C 52.25 319.79 53.11 319.78 53.54 319.78 C 53.49 321.01 53.45 322.25 53.40 323.49 C 54.28 323.26 55.16 323.03 56.04 322.80 C 56.43 324.66 56.89 326.51 57.41 328.35 C 58.63 327.22 59.81 326.05 61.02 324.91 C 61.80 326.43 62.60 327.95 63.40 329.47 C 63.88 331.73 64.44 333.97 65.02 336.21 C 65.79 336.29 67.34 336.44 68.12 336.52 C 67.35 338.92 65.20 340.28 63.35 341.79 C 65.13 341.60 66.91 341.41 68.69 341.21 C 68.63 341.98 68.53 343.52 68.47 344.29 C 69.04 344.51 70.17 344.95 70.74 345.17 C 70.19 344.08 69.65 343.00 69.11 341.91 C 70.48 341.21 71.84 340.51 73.21 339.81 C 72.57 339.39 71.28 338.56 70.63 338.14 C 72.15 336.36 73.52 334.48 74.93 332.63 C 75.12 333.35 75.48 334.81 75.66 335.53 C 76.74 336.79 77.72 338.16 77.49 339.92 C 77.80 339.98 78.41 340.12 78.72 340.18 C 78.83 341.52 78.96 342.87 79.07 344.21 C 80.28 344.33 81.49 344.45 82.70 344.58 C 81.81 346.08 80.92 347.59 80.02 349.09 C 80.88 349.52 81.75 349.95 82.61 350.40 C 81.52 351.82 80.77 353.54 82.44 354.91 C 81.85 355.43 81.26 355.98 80.67 356.52 C 81.56 358.13 82.27 359.83 82.86 361.58 C 79.00 356.61 74.10 352.62 69.04 348.95 C 59.79 341.91 49.52 336.43 39.68 330.28 C 39.33 329.37 38.97 328.48 38.61 327.58 C 39.42 327.08 40.22 326.58 41.01 326.07 C 41.06 325.90 41.15 325.57 41.19 325.40 C 42.20 323.41 41.56 319.17 44.78 319.58 C 44.20 319.01 43.64 318.43 43.10 317.83 Z" fill="#02202e" opacity="1.00" stroke="#02202e" stroke-width="0.25"/>
<path d="M 91.21 336.78 C 93.88 340.20 95.82 344.10 97.01 348.27 C 98.72 347.49 100.36 346.58 101.93 345.55 C 102.12 345.97 102.49 346.80 102.68 347.21 C 102.27 347.62 101.45 348.42 101.04 348.82 C 105.41 347.63 101.80 353.02 105.31 353.58 C 103.87 354.40 102.33 355.02 100.75 355.50 C 103.85 355.89 106.87 356.76 109.81 357.80 C 108.27 358.73 106.74 359.67 105.20 360.61 C 108.40 360.46 111.61 360.21 114.80 360.59 C 114.48 360.15 113.85 359.27 113.53 358.83 C 114.29 358.68 115.82 358.37 116.58 358.22 C 115.43 357.98 114.27 357.79 113.10 357.65 C 115.71 355.25 116.27 351.72 117.48 348.57 C 117.93 349.50 118.37 350.43 118.79 351.38 C 119.32 351.66 120.36 352.23 120.88 352.51 C 120.77 353.27 120.53 354.80 120.41 355.56 C 121.59 356.32 122.41 357.37 122.61 358.80 C 123.28 358.57 124.62 358.13 125.30 357.91 C 125.62 358.34 126.27 359.21 126.59 359.65 C 126.18 358.51 125.77 357.39 125.36 356.27 C 126.28 354.85 127.17 353.42 128.04 351.98 C 128.91 353.68 129.82 355.36 130.76 357.03 C 130.25 357.81 129.75 358.59 129.25 359.38 C 130.04 359.30 131.61 359.15 132.40 359.07 C 132.53 359.76 132.78 361.14 132.91 361.83 C 132.22 362.43 131.54 363.03 130.85 363.64 C 132.63 363.53 134.42 363.40 136.20 363.27 C 136.39 362.85 136.76 362.02 136.95 361.61 C 135.04 361.40 134.05 360.32 133.98 358.37 C 134.54 358.43 135.67 358.54 136.24 358.60 C 135.61 356.77 136.20 355.94 138.22 356.49 C 138.67 354.91 139.13 353.34 139.60 351.78 C 141.73 355.69 143.09 359.94 144.49 364.15 C 146.00 363.96 147.52 363.78 149.04 363.61 C 148.64 363.26 147.84 362.56 147.44 362.21 C 148.61 360.26 149.67 358.18 151.49 356.75 C 152.52 359.09 152.24 363.02 155.73 363.06 C 155.12 363.92 154.52 364.80 153.93 365.68 C 154.57 365.52 155.84 365.18 156.48 365.02 C 156.51 365.46 156.56 366.36 156.59 366.81 L 156.70 365.31 C 157.25 365.44 158.34 365.71 158.88 365.85 C 158.28 364.64 157.69 363.43 157.10 362.22 C 157.88 362.32 159.44 362.50 160.22 362.59 C 159.85 361.89 159.13 360.49 158.76 359.79 C 159.61 359.80 161.31 359.82 162.16 359.84 C 161.70 359.54 160.78 358.94 160.32 358.64 C 160.28 358.12 160.20 357.08 160.15 356.56 C 160.66 356.34 161.68 355.90 162.19 355.69 C 162.39 353.70 162.83 351.76 163.62 349.93 C 164.58 351.06 165.52 352.21 166.45 353.37 C 166.82 354.83 167.08 356.45 168.55 357.25 C 168.51 357.88 168.43 359.14 168.39 359.77 C 168.88 359.58 169.86 359.18 170.34 358.99 C 171.15 360.60 172.07 362.14 173.04 363.67 C 173.68 363.61 174.98 363.50 175.63 363.45 C 176.16 364.08 176.70 364.71 177.24 365.35 C 177.41 366.04 177.77 367.40 177.94 368.09 C 177.68 368.61 177.15 369.64 176.89 370.16 C 178.25 370.89 179.62 371.63 180.98 372.38 C 181.30 370.79 181.63 369.20 181.98 367.63 C 183.58 368.01 185.17 368.44 186.73 368.95 C 186.57 368.53 186.24 367.69 186.07 367.27 C 186.58 366.99 187.61 366.43 188.13 366.16 C 186.12 366.58 184.09 366.94 182.05 367.18 C 183.10 366.76 185.19 365.92 186.24 365.49 C 185.97 364.91 185.43 363.74 185.16 363.16 C 185.88 363.23 187.30 363.36 188.02 363.42 C 188.73 361.38 189.71 359.46 190.99 357.72 C 191.87 359.33 192.77 360.95 193.74 362.53 C 194.59 363.53 195.17 364.68 195.50 365.96 C 196.07 366.06 197.20 366.27 197.76 366.37 C 197.68 367.51 196.59 368.19 196.01 369.10 C 196.87 369.67 197.74 370.26 198.60 370.84 C 198.66 370.21 198.77 368.96 198.83 368.33 C 199.73 368.40 201.51 368.54 202.41 368.61 C 201.21 368.01 199.93 367.48 198.80 366.79 C 198.74 364.63 200.20 364.11 202.13 364.52 C 201.15 363.93 200.18 363.34 199.22 362.74 C 199.93 362.60 201.35 362.33 202.05 362.20 C 201.77 361.56 201.19 360.29 200.91 359.65 C 201.46 359.74 202.57 359.93 203.12 360.02 C 202.30 357.44 204.10 355.22 205.10 353.01 C 206.93 354.94 208.14 357.30 208.45 359.96 C 209.96 361.10 211.49 362.17 213.04 363.26 C 212.26 363.67 210.69 364.50 209.90 364.91 C 210.50 365.07 211.10 365.22 211.71 365.36 C 213.23 363.12 215.93 363.28 218.30 363.07 C 217.53 362.42 215.99 361.13 215.21 360.49 C 215.87 360.41 217.18 360.25 217.84 360.18 C 217.67 359.35 217.33 357.68 217.16 356.85 C 217.79 356.71 219.05 356.42 219.68 356.28 C 220.37 354.44 221.09 352.61 221.84 350.80 C 223.93 352.81 225.75 355.14 226.61 357.96 C 243.15 350.40 260.13 343.81 276.80 336.53 C 277.97 336.77 279.16 337.01 280.34 337.26 C 271.62 341.35 262.89 345.44 253.91 348.96 C 245.30 352.21 237.00 356.23 228.33 359.32 C 228.01 360.62 227.71 361.93 227.41 363.24 C 228.74 363.38 230.07 363.53 231.40 363.68 C 231.07 364.65 230.74 365.63 230.40 366.60 C 230.80 367.97 231.19 369.35 231.59 370.73 C 232.16 370.82 233.31 371.02 233.89 371.11 C 234.66 368.28 235.22 365.39 235.57 362.48 L 235.90 361.52 C 240.04 359.94 240.82 365.53 240.76 368.49 C 241.82 368.46 242.88 368.44 243.94 368.43 C 243.63 367.69 243.00 366.22 242.68 365.49 C 243.18 365.32 244.18 365.00 244.68 364.84 C 244.53 364.43 244.23 363.61 244.08 363.20 C 245.37 361.02 246.80 358.93 248.16 356.80 C 248.53 358.62 249.25 360.36 250.59 361.70 C 250.65 362.23 250.78 363.30 250.84 363.84 C 251.59 363.72 253.09 363.47 253.84 363.35 C 253.38 365.08 252.91 366.81 252.43 368.54 C 252.83 368.51 253.62 368.44 254.01 368.40 C 254.56 366.88 255.13 365.36 255.73 363.86 C 258.21 367.03 260.31 370.47 262.27 373.98 C 262.56 373.45 263.13 372.39 263.42 371.87 C 264.58 372.75 265.87 373.86 267.34 372.82 L 267.64 372.73 C 268.62 373.75 269.61 374.78 270.59 375.81 C 269.90 377.03 269.21 378.25 268.53 379.47 C 268.71 379.77 269.06 380.37 269.24 380.67 C 266.02 384.43 268.09 390.70 272.37 392.68 C 275.69 394.18 279.20 395.21 282.68 396.29 C 285.85 397.24 289.00 395.18 292.20 395.69 C 293.54 396.05 294.80 396.68 296.07 397.28 C 294.52 397.49 292.98 397.69 291.45 397.90 C 293.69 398.69 295.95 399.49 298.27 400.03 C 280.61 402.46 262.95 404.88 245.25 407.08 C 223.13 409.57 201.05 412.56 178.87 414.52 C 163.25 416.11 147.60 417.65 131.88 417.73 C 108.59 418.31 85.29 419.19 61.98 418.61 C 55.50 418.50 49.01 418.21 42.54 418.73 L 42.17 418.05 C 42.04 418.66 41.76 419.87 41.63 420.47 C 32.86 414.80 25.11 407.67 16.14 402.25 C 15.46 401.06 14.83 399.86 14.19 398.65 C 15.77 398.58 17.34 398.52 18.91 398.46 C 18.41 397.78 17.91 397.10 17.41 396.43 C 18.68 394.76 19.96 393.09 21.23 391.43 C 27.56 393.58 33.93 395.59 40.48 396.94 C 45.30 398.76 50.51 398.62 55.57 398.32 C 65.81 398.09 76.57 394.24 82.79 385.74 C 87.82 378.65 87.52 368.77 82.86 361.58 C 82.27 359.83 81.56 358.13 80.67 356.52 C 81.26 355.98 81.85 355.43 82.44 354.91 C 80.77 353.54 81.52 351.82 82.61 350.40 C 84.42 349.64 85.68 348.38 85.59 346.29 C 86.03 346.28 86.91 346.27 87.34 346.26 C 87.37 345.60 87.41 344.26 87.43 343.60 C 88.91 341.45 90.09 339.12 91.21 336.78 Z" fill="#012638" opacity="1.00" stroke="#012638" stroke-width="0.25"/>
<path d="M 0.00 337.99 C 11.09 342.05 23.16 344.11 33.02 350.98 C 38.92 354.87 41.48 361.78 45.85 367.06 C 49.45 371.68 54.37 375.89 55.34 381.97 C 56.15 386.06 54.31 389.97 53.07 393.77 C 49.93 394.90 46.68 395.64 43.41 396.27 C 37.85 394.77 34.00 389.99 28.51 388.35 C 23.12 386.69 17.75 384.34 12.04 384.20 C 10.21 383.88 10.20 385.68 10.00 386.99 C 13.41 389.19 17.45 390.08 21.23 391.43 C 19.96 393.09 18.68 394.76 17.41 396.43 C 17.91 397.10 18.41 397.78 18.91 398.46 C 17.34 398.52 15.77 398.58 14.19 398.65 C 14.83 399.86 15.46 401.06 16.14 402.25 C 12.20 399.78 8.22 397.08 3.49 396.46 C 3.07 401.07 7.12 404.10 10.17 406.85 C 23.36 417.95 36.74 428.89 48.78 441.26 C 56.35 448.39 61.81 459.04 58.73 469.60 C 56.57 472.09 54.38 475.02 50.96 475.78 C 47.52 476.49 44.10 475.15 40.90 474.03 C 33.55 468.30 25.14 464.14 16.73 460.21 C 11.31 457.44 5.76 454.94 0.00 452.94 L 0.00 337.99 Z" fill="#102a26" opacity="1.00" stroke="#102a26" stroke-width="0.25"/>
<path d="M 228.33 359.32 C 237.00 356.23 245.30 352.21 253.91 348.96 C 254.48 349.05 255.64 349.25 256.22 349.34 C 253.44 350.83 250.55 352.11 247.64 353.31 C 247.81 354.47 247.99 355.64 248.16 356.80 C 246.80 358.93 245.37 361.02 244.08 363.20 C 244.23 363.61 244.53 364.43 244.68 364.84 C 244.18 365.00 243.18 365.32 242.68 365.49 C 243.00 366.22 243.63 367.69 243.94 368.43 C 242.88 368.44 241.82 368.46 240.76 368.49 C 240.82 365.53 240.04 359.94 235.90 361.52 L 235.57 362.48 C 234.94 364.19 234.37 365.92 233.85 367.68 C 232.70 367.32 231.55 366.96 230.40 366.60 C 230.74 365.63 231.07 364.65 231.40 363.68 C 230.07 363.53 228.74 363.38 227.41 363.24 C 227.71 361.93 228.01 360.62 228.33 359.32 Z" fill="#fccd9f" opacity="1.00" stroke="#fccd9f" stroke-width="0.25"/>
<path d="M 434.44 353.46 C 435.60 353.74 436.75 354.06 437.91 354.36 C 438.46 356.68 439.54 358.82 440.71 360.89 C 441.80 358.92 442.05 356.20 444.03 354.91 C 445.64 354.62 446.40 356.14 447.35 357.13 C 448.26 359.80 450.13 361.93 451.86 364.10 C 453.01 364.26 454.17 364.44 455.33 364.63 C 455.38 366.78 455.44 368.93 455.54 371.08 C 451.00 374.28 446.04 376.84 441.54 380.09 C 433.56 381.71 425.56 383.18 417.46 384.03 C 389.00 388.28 360.48 392.20 331.92 395.75 C 320.71 397.25 309.49 398.57 298.27 400.03 C 295.95 399.49 293.69 398.69 291.45 397.90 C 292.98 397.69 294.52 397.49 296.07 397.28 C 294.80 396.68 293.54 396.05 292.20 395.69 C 289.00 395.18 285.85 397.24 282.68 396.29 C 279.20 395.21 275.69 394.18 272.37 392.68 C 268.09 390.70 266.02 384.43 269.24 380.67 C 269.06 380.37 268.71 379.77 268.53 379.47 C 269.21 378.25 269.90 377.03 270.59 375.81 C 269.61 374.78 268.62 373.75 267.64 372.73 C 267.61 372.70 267.55 372.63 267.52 372.60 L 267.34 372.82 C 265.87 373.86 264.58 372.75 263.42 371.87 C 263.40 371.29 263.35 370.14 263.33 369.56 C 263.90 369.47 265.03 369.30 265.59 369.21 C 265.75 367.82 265.93 366.43 266.14 365.05 C 268.43 365.03 269.01 362.68 269.98 361.08 C 270.25 361.83 270.77 363.31 271.04 364.06 C 271.46 364.33 272.32 364.88 272.74 365.16 C 272.77 365.92 272.83 367.45 272.86 368.21 C 273.39 368.24 274.44 368.30 274.97 368.33 C 274.85 369.22 274.63 370.99 274.52 371.88 C 275.02 371.58 276.03 370.99 276.53 370.69 C 276.87 371.01 277.55 371.63 277.89 371.95 C 277.87 369.48 278.92 367.38 280.56 365.63 C 281.34 365.22 282.12 364.82 282.91 364.42 C 284.44 367.26 285.99 370.09 287.56 372.91 C 289.79 370.44 291.41 367.52 292.76 364.50 C 293.15 364.46 293.93 364.39 294.32 364.35 C 295.73 367.02 297.06 369.76 297.80 372.70 C 298.19 373.11 298.95 373.92 299.34 374.32 C 299.05 375.13 298.76 375.94 298.48 376.76 C 299.45 376.43 300.42 376.10 301.39 375.78 C 301.32 374.31 301.29 372.85 301.28 371.39 C 302.59 371.79 303.90 372.19 305.22 372.62 C 305.26 372.13 305.34 371.16 305.38 370.68 C 306.37 369.70 307.36 368.71 308.34 367.73 C 308.77 369.04 309.20 370.35 309.63 371.67 C 310.02 371.70 310.80 371.75 311.19 371.78 C 311.18 372.71 311.16 374.55 311.15 375.48 C 312.47 375.38 313.80 375.29 315.13 375.20 C 315.16 375.97 315.22 377.52 315.25 378.30 C 315.97 378.34 317.41 378.42 318.13 378.46 C 318.94 375.57 321.80 375.22 323.95 376.92 C 324.32 377.97 324.73 379.00 325.18 380.04 C 326.50 378.64 327.51 376.99 328.68 375.48 C 329.67 374.78 330.38 375.91 331.11 376.44 C 331.30 375.99 331.69 375.07 331.88 374.62 C 333.33 374.97 333.22 377.07 333.97 378.17 C 335.30 375.21 336.13 371.84 338.66 369.61 C 339.32 371.31 339.93 373.02 340.54 374.74 C 341.80 372.55 343.09 370.39 344.37 368.23 C 344.90 368.18 345.95 368.10 346.48 368.06 C 347.14 369.91 347.80 371.77 348.41 373.65 C 348.85 373.53 349.74 373.30 350.18 373.19 C 351.28 374.25 352.42 375.30 353.54 376.36 C 353.77 375.68 354.22 374.32 354.45 373.64 C 356.78 373.12 356.71 376.00 357.61 377.39 C 359.78 375.65 360.62 372.91 361.79 370.50 C 362.51 370.63 363.96 370.88 364.68 371.01 C 364.92 371.57 365.40 372.69 365.63 373.25 C 366.83 374.03 367.95 374.94 368.92 376.01 C 369.35 375.83 370.21 375.47 370.64 375.29 C 371.70 376.50 372.97 377.49 374.34 378.31 C 374.28 376.75 374.21 375.19 374.14 373.64 C 374.74 373.28 375.93 372.56 376.53 372.20 C 376.01 371.62 374.97 370.45 374.45 369.86 C 375.57 369.44 376.69 369.01 377.82 368.59 C 377.49 367.60 377.16 366.63 376.83 365.65 C 377.75 364.25 378.68 362.87 379.69 361.53 C 381.08 363.79 382.48 366.04 383.96 368.24 C 383.51 368.50 382.62 369.03 382.18 369.29 C 385.00 369.70 384.30 372.84 384.80 374.91 C 385.66 373.75 386.53 372.58 387.43 371.44 C 387.82 370.20 388.21 368.96 388.61 367.73 C 389.79 367.57 390.97 367.40 392.16 367.24 C 392.30 367.64 392.57 368.44 392.70 368.84 C 392.93 368.24 393.39 367.03 393.62 366.43 C 394.69 367.32 395.77 368.21 396.87 369.09 C 396.21 367.28 392.09 364.22 395.95 363.56 C 395.80 363.13 395.49 362.27 395.33 361.84 C 395.95 361.65 397.20 361.26 397.82 361.06 C 397.70 360.29 397.45 358.76 397.32 358.00 C 398.09 357.49 399.64 356.49 400.41 355.99 C 401.05 357.45 401.69 358.93 402.32 360.41 C 403.50 360.84 404.69 361.31 405.87 361.81 L 403.98 363.01 C 405.70 363.11 407.42 363.19 409.15 363.28 C 408.39 362.94 406.87 362.25 406.11 361.90 C 407.08 360.63 408.47 359.86 409.95 359.29 C 409.13 359.25 407.49 359.18 406.67 359.14 C 407.58 357.40 408.56 355.71 409.53 354.00 C 410.58 355.29 411.66 356.57 412.80 357.81 C 412.64 358.52 412.50 359.24 412.36 359.97 C 415.05 361.20 414.44 364.39 415.68 366.61 C 415.51 367.27 415.34 367.93 415.18 368.60 C 415.85 368.54 417.18 368.44 417.84 368.38 C 417.54 367.55 417.25 366.72 416.96 365.89 C 417.84 365.64 418.72 365.39 419.60 365.15 C 419.42 364.64 419.05 363.62 418.86 363.12 C 420.20 360.66 421.53 358.19 422.99 355.81 C 423.99 357.40 424.98 359.02 425.95 360.65 C 426.67 360.93 428.11 361.48 428.84 361.76 C 428.36 362.56 427.90 363.36 427.44 364.17 C 428.64 364.60 429.85 365.05 431.04 365.53 C 430.93 364.85 430.70 363.51 430.58 362.83 C 430.88 362.22 431.47 361.00 431.76 360.39 C 432.16 360.11 432.95 359.54 433.34 359.26 C 433.56 357.30 433.96 355.37 434.44 353.46 Z" fill="#012d42" opacity="1.00" stroke="#012d42" stroke-width="0.25"/>
<path d="M 437.91 354.36 C 446.39 353.54 454.63 355.77 462.99 356.73 C 460.93 361.67 460.08 367.68 455.54 371.08 C 455.44 368.93 455.38 366.78 455.33 364.63 C 454.17 364.44 453.01 364.26 451.86 364.10 C 450.13 361.93 448.26 359.80 447.35 357.13 C 446.40 356.14 445.64 354.62 444.03 354.91 C 442.05 356.20 441.80 358.92 440.71 360.89 C 439.54 358.82 438.46 356.68 437.91 354.36 Z" fill="#fbd8ad" opacity="1.00" stroke="#fbd8ad" stroke-width="0.25"/>
<path d="M 498.47 356.79 C 500.77 357.31 503.11 357.78 505.49 357.78 C 501.07 359.84 496.72 362.05 492.51 364.52 C 484.36 369.33 475.44 372.96 468.19 379.18 C 464.50 381.98 461.55 386.20 461.64 391.00 C 461.38 395.38 464.48 398.86 465.48 402.93 C 465.43 405.38 463.69 407.35 461.93 408.86 C 458.96 411.31 455.84 413.61 452.50 415.52 C 450.60 416.63 447.97 417.52 446.06 415.93 C 443.07 413.74 444.13 409.52 444.80 406.47 C 448.49 393.92 457.14 383.25 467.73 375.76 C 475.66 369.43 485.13 365.37 493.04 359.03 C 495.41 360.82 496.96 358.27 498.47 356.79 Z" fill="#0e2922" opacity="1.00" stroke="#0e2922" stroke-width="0.25"/>
<path d="M 122.70 363.02 C 123.14 361.83 123.99 360.99 125.23 360.50 C 125.32 361.83 125.40 363.18 125.48 364.52 C 124.25 364.62 122.55 364.90 122.70 363.02 Z" fill="#1e3944" opacity="1.00" stroke="#1e3944" stroke-width="0.25"/>
<path d="M 233.85 367.68 C 234.37 365.92 234.94 364.19 235.57 362.48 C 235.22 365.39 234.66 368.28 233.89 371.11 C 233.31 371.02 232.16 370.82 231.59 370.73 C 231.19 369.35 230.80 367.97 230.40 366.60 C 231.55 366.96 232.70 367.32 233.85 367.68 Z" fill="#63665a" opacity="1.00" stroke="#63665a" stroke-width="0.25"/>
<path d="M 110.28 364.35 C 113.14 364.27 110.60 367.27 108.90 366.28 C 107.24 365.68 109.39 364.23 110.28 364.35 Z" fill="#6d726c" opacity="1.00" stroke="#6d726c" stroke-width="0.25"/>
<path d="M 145.32 365.03 C 146.70 364.51 147.10 364.99 146.55 366.47 C 145.18 366.99 144.77 366.51 145.32 365.03 Z" fill="#5e7072" opacity="1.00" stroke="#5e7072" stroke-width="0.25"/>
<path d="M 161.19 365.19 C 161.71 365.72 161.71 365.72 161.19 365.19 Z" fill="#747d7b" opacity="1.00" stroke="#747d7b" stroke-width="0.25"/>
<path d="M 174.43 365.20 C 175.64 365.78 175.54 366.48 174.13 367.29 C 172.93 366.71 173.03 366.01 174.43 365.20 Z" fill="#ab8974" opacity="1.00" stroke="#ab8974" stroke-width="0.25"/>
<path d="M 132.00 367.70 C 132.88 366.93 133.65 365.32 135.16 366.63 C 133.58 367.69 131.77 368.32 129.99 368.95 C 130.49 368.63 131.50 368.01 132.00 367.70 Z" fill="#fefefd" opacity="1.00" stroke="#fefefd" stroke-width="0.25"/>
<path d="M 213.16 366.36 C 214.14 366.09 216.33 366.53 215.70 367.98 C 214.65 369.64 210.70 367.38 213.16 366.36 Z" fill="#feeac8" opacity="1.00" stroke="#feeac8" stroke-width="0.25"/>
<path d="M 505.43 367.83 C 507.72 367.37 509.90 366.51 512.00 365.49 L 512.00 403.68 C 502.46 401.08 492.63 403.83 483.93 407.79 C 482.72 405.46 483.81 402.89 484.54 400.61 C 487.12 393.54 489.62 386.29 494.12 380.16 C 497.36 375.58 501.82 372.09 505.43 367.83 Z" fill="#0e2924" opacity="1.00" stroke="#0e2924" stroke-width="0.25"/>
<path d="M 409.09 368.13 C 412.42 368.26 407.55 371.11 409.09 368.13 Z" fill="#3a4f5f" opacity="1.00" stroke="#3a4f5f" stroke-width="0.25"/>
<path d="M 473.84 384.97 C 481.10 374.90 493.35 369.36 505.43 367.83 C 501.82 372.09 497.36 375.58 494.12 380.16 C 489.62 386.29 487.12 393.54 484.54 400.61 C 483.81 402.89 482.72 405.46 483.93 407.79 C 492.63 403.83 502.46 401.08 512.00 403.68 L 512.00 414.83 C 505.27 417.15 499.20 421.59 495.95 428.04 C 489.65 438.66 494.10 451.84 488.81 462.80 C 485.30 471.38 477.49 477.07 472.97 485.00 C 468.61 493.42 470.63 503.36 473.28 512.00 L 458.01 512.00 C 458.59 505.67 459.61 499.39 460.58 493.12 C 462.28 482.81 462.83 472.35 464.83 462.09 C 467.26 449.25 468.61 436.00 473.87 423.91 C 476.26 418.22 480.51 413.51 483.09 407.98 C 480.63 404.64 475.08 404.99 472.73 401.29 C 469.73 396.26 470.27 389.57 473.84 384.97 Z" fill="#546b2c" opacity="1.00" stroke="#546b2c" stroke-width="0.25"/>
<path d="M 154.44 369.17 C 155.16 368.35 157.70 368.22 157.59 369.67 C 156.86 370.45 154.34 370.59 154.44 369.17 Z" fill="#66797f" opacity="1.00" stroke="#66797f" stroke-width="0.25"/>
<path d="M 267.52 372.60 C 267.55 372.63 267.61 372.70 267.64 372.73 L 267.34 372.82 L 267.52 372.60 Z" fill="#788276" opacity="1.00" stroke="#788276" stroke-width="0.25"/>
<path d="M 275.01 372.24 C 275.57 372.79 275.57 372.79 275.01 372.24 Z" fill="#a1a494" opacity="1.00" stroke="#a1a494" stroke-width="0.25"/>
<path d="M 197.14 373.47 C 198.03 372.41 200.59 373.44 199.69 374.87 C 198.80 375.95 196.18 374.91 197.14 373.47 Z" fill="#274553" opacity="1.00" stroke="#274553" stroke-width="0.25"/>
<path d="M 417.46 384.03 C 425.56 383.18 433.56 381.71 441.54 380.09 C 437.98 383.52 433.50 385.86 430.16 389.51 C 429.36 389.60 427.75 389.78 426.95 389.86 C 424.49 386.92 421.30 384.70 417.46 384.03 Z" fill="#feeac8" opacity="1.00" stroke="#feeac8" stroke-width="0.25"/>
<path d="M 10.00 386.99 C 10.20 385.68 10.21 383.88 12.04 384.20 C 17.75 384.34 23.12 386.69 28.51 388.35 C 34.00 389.99 37.85 394.77 43.41 396.27 C 42.68 396.44 41.21 396.77 40.48 396.94 C 33.93 395.59 27.56 393.58 21.23 391.43 C 17.45 390.08 13.41 389.19 10.00 386.99 Z" fill="#f7a840" opacity="1.00" stroke="#f7a840" stroke-width="0.25"/>
<path d="M 331.92 395.75 C 360.48 392.20 389.00 388.28 417.46 384.03 C 421.30 384.70 424.49 386.92 426.95 389.86 C 402.97 392.92 378.85 394.80 354.89 398.01 C 347.68 398.87 340.49 399.82 333.28 400.65 C 332.69 400.37 331.51 399.80 330.91 399.52 C 332.62 399.20 334.32 398.91 336.03 398.62 C 334.66 397.66 333.29 396.70 331.92 395.75 Z" fill="#fee0ae" opacity="1.00" stroke="#fee0ae" stroke-width="0.25"/>
<path d="M 354.89 398.01 C 378.85 394.80 402.97 392.92 426.95 389.86 C 427.75 389.78 429.36 389.60 430.16 389.51 C 429.61 390.11 429.06 390.72 428.52 391.33 C 404.32 394.47 380.02 396.79 355.79 399.80 L 354.89 398.01 Z" fill="#0c172a" opacity="1.00" stroke="#0c172a" stroke-width="0.25"/>
<path d="M 355.79 399.80 C 380.02 396.79 404.32 394.47 428.52 391.33 C 424.55 395.69 420.69 400.76 420.40 406.90 C 419.23 413.60 422.20 420.37 426.91 425.04 C 430.68 428.62 435.74 430.17 440.61 431.60 C 440.76 431.85 441.06 432.34 441.22 432.58 C 434.24 432.55 427.25 432.32 420.30 432.91 C 419.84 431.81 419.45 430.66 419.05 429.56 C 418.23 429.53 416.60 429.48 415.78 429.45 C 415.17 430.45 414.58 431.46 414.00 432.47 C 410.63 432.66 407.25 432.66 403.88 432.64 C 378.27 433.05 352.66 433.43 327.04 433.71 C 285.31 434.77 243.56 435.82 201.87 438.00 C 169.58 439.76 137.27 441.17 105.00 443.39 C 94.70 444.25 84.30 444.14 74.09 445.88 C 70.04 442.41 66.17 438.74 62.24 435.14 C 64.79 435.62 67.40 435.41 69.96 435.12 C 90.47 432.66 110.92 429.73 131.43 427.27 C 165.92 422.92 200.54 419.66 234.99 414.96 C 275.32 410.45 315.51 404.72 355.79 399.80 Z" fill="#fcd8a1" opacity="1.00" stroke="#fcd8a1" stroke-width="0.25"/>
<path d="M 43.41 396.27 C 46.68 395.64 49.93 394.90 53.07 393.77 C 53.92 395.27 54.75 396.79 55.57 398.32 C 50.51 398.62 45.30 398.76 40.48 396.94 C 41.21 396.77 42.68 396.44 43.41 396.27 Z" fill="#42621c" opacity="1.00" stroke="#42621c" stroke-width="0.25"/>
<path d="M 298.27 400.03 C 309.49 398.57 320.71 397.25 331.92 395.75 C 333.29 396.70 334.66 397.66 336.03 398.62 C 334.32 398.91 332.62 399.20 330.91 399.52 C 331.51 399.80 332.69 400.37 333.28 400.65 C 322.87 402.19 312.36 402.93 301.94 404.36 C 294.71 405.27 287.53 406.48 280.27 407.16 C 276.20 406.92 272.15 406.30 268.06 406.46 C 261.99 406.62 256.05 408.14 250.00 408.44 C 248.28 408.63 246.74 407.76 245.25 407.08 C 262.95 404.88 280.61 402.46 298.27 400.03 Z" fill="#ffd9a5" opacity="1.00" stroke="#ffd9a5" stroke-width="0.25"/>
<path d="M 3.49 396.46 C 8.22 397.08 12.20 399.78 16.14 402.25 C 25.11 407.67 32.86 414.80 41.63 420.47 C 41.76 419.87 42.04 418.66 42.17 418.05 L 42.54 418.73 C 44.61 421.92 48.06 423.76 50.90 426.17 C 54.27 428.97 57.80 431.56 61.25 434.25 C 61.49 434.48 61.99 434.92 62.24 435.14 C 66.17 438.74 70.04 442.41 74.09 445.88 L 74.92 446.65 C 76.50 448.86 78.14 451.03 79.87 453.14 C 79.29 456.45 79.97 460.63 76.97 462.95 C 71.38 466.40 64.07 465.56 58.73 469.60 C 61.81 459.04 56.35 448.39 48.78 441.26 C 36.74 428.89 23.36 417.95 10.17 406.85 C 7.12 404.10 3.07 401.07 3.49 396.46 Z" fill="#576d2c" opacity="1.00" stroke="#576d2c" stroke-width="0.25"/>
<path d="M 333.28 400.65 C 340.49 399.82 347.68 398.87 354.89 398.01 L 355.79 399.80 C 315.51 404.72 275.32 410.45 234.99 414.96 C 200.54 419.66 165.92 422.92 131.43 427.27 C 132.74 425.30 134.23 423.43 136.09 421.96 L 136.91 421.65 C 150.63 420.57 164.27 418.61 177.98 417.29 C 212.06 413.73 246.25 411.25 280.27 407.16 C 287.53 406.48 294.71 405.27 301.94 404.36 C 312.36 402.93 322.87 402.19 333.28 400.65 Z" fill="#132436" opacity="1.00" stroke="#132436" stroke-width="0.25"/>
<path d="M 250.00 408.44 C 256.05 408.14 261.99 406.62 268.06 406.46 C 272.15 406.30 276.20 406.92 280.27 407.16 C 246.25 411.25 212.06 413.73 177.98 417.29 C 164.27 418.61 150.63 420.57 136.91 421.65 C 135.31 420.24 133.68 418.87 131.88 417.73 C 147.60 417.65 163.25 416.11 178.87 414.52 C 201.05 412.56 223.13 409.57 245.25 407.08 C 246.74 407.76 248.28 408.63 250.00 408.44 Z" fill="#fec98e" opacity="1.00" stroke="#fec98e" stroke-width="0.25"/>
<path d="M 495.95 428.04 C 499.20 421.59 505.27 417.15 512.00 414.83 L 512.00 512.00 L 473.28 512.00 C 470.63 503.36 468.61 493.42 472.97 485.00 C 477.49 477.07 485.30 471.38 488.81 462.80 C 494.10 451.84 489.65 438.66 495.95 428.04 Z" fill="#102b26" opacity="1.00" stroke="#102b26" stroke-width="0.25"/>
<path d="M 61.98 418.61 C 85.29 419.19 108.59 418.31 131.88 417.73 C 133.68 418.87 135.31 420.24 136.91 421.65 L 136.09 421.96 C 120.20 423.75 104.26 425.17 88.38 427.08 C 78.95 428.18 69.44 428.82 60.13 430.74 C 60.41 431.62 60.97 433.37 61.25 434.25 C 57.80 431.56 54.27 428.97 50.90 426.17 C 48.06 423.76 44.61 421.92 42.54 418.73 C 49.01 418.21 55.50 418.50 61.98 418.61 Z" fill="#fdc391" opacity="1.00" stroke="#fdc391" stroke-width="0.25"/>
<path d="M 88.38 427.08 C 104.26 425.17 120.20 423.75 136.09 421.96 C 134.23 423.43 132.74 425.30 131.43 427.27 C 110.92 429.73 90.47 432.66 69.96 435.12 C 67.40 435.41 64.79 435.62 62.24 435.14 C 61.99 434.92 61.49 434.48 61.25 434.25 C 60.97 433.37 60.41 431.62 60.13 430.74 C 69.44 428.82 78.95 428.18 88.38 427.08 Z" fill="#063039" opacity="1.00" stroke="#063039" stroke-width="0.25"/>
<path d="M 418.20 426.37 C 421.52 426.58 416.62 429.33 418.20 426.37 Z" fill="#a9956d" opacity="1.00" stroke="#a9956d" stroke-width="0.25"/>
<path d="M 414.00 432.47 C 414.58 431.46 415.17 430.45 415.78 429.45 C 416.60 429.48 418.23 429.53 419.05 429.56 C 419.45 430.66 419.84 431.81 420.30 432.91 C 420.78 433.93 421.27 434.95 421.75 435.98 C 424.55 441.69 427.31 447.57 431.57 452.36 C 434.17 455.20 437.31 457.44 440.47 459.60 C 440.76 459.97 441.34 460.70 441.63 461.06 C 441.03 462.50 440.37 463.90 439.69 465.31 C 435.34 465.71 431.04 466.55 426.75 467.34 C 430.55 473.33 436.10 478.12 442.79 480.58 C 445.43 481.80 448.42 482.43 450.70 484.34 C 452.58 485.76 452.01 488.93 450.09 490.09 C 445.20 493.79 438.95 494.83 433.62 497.70 C 428.80 500.79 427.50 506.75 426.54 512.00 L 314.87 512.00 C 314.98 511.41 315.20 510.23 315.31 509.64 C 320.33 506.16 325.48 502.23 328.06 496.52 C 324.89 496.25 320.45 497.10 319.21 493.24 C 325.35 488.59 330.24 482.56 334.57 476.24 C 337.49 482.12 342.41 486.50 346.95 491.10 C 348.74 492.40 347.07 494.60 346.96 496.31 C 347.82 496.44 348.69 496.54 349.57 496.60 C 352.14 494.75 354.26 492.38 356.74 490.43 C 354.26 490.13 351.79 489.77 349.35 489.27 C 352.82 481.84 359.20 476.36 363.30 469.32 C 364.66 467.67 365.36 465.04 367.45 464.24 C 373.23 471.23 378.70 478.52 385.07 485.01 C 384.61 486.20 384.15 487.39 383.70 488.59 C 382.65 488.53 380.54 488.40 379.48 488.34 C 382.09 490.02 384.82 491.62 386.82 494.07 C 387.91 493.47 389.01 492.88 390.11 492.30 C 390.84 493.50 391.59 494.71 392.33 495.92 C 392.92 494.95 393.51 494.00 394.11 493.04 C 390.84 491.84 387.66 490.42 384.44 489.10 C 387.16 485.92 390.21 482.98 393.88 480.91 C 393.50 480.50 392.75 479.67 392.38 479.25 C 395.95 474.51 400.82 471.06 404.88 466.79 C 398.92 466.45 392.61 467.49 386.98 465.02 C 390.32 462.74 393.91 460.72 396.66 457.68 C 403.32 450.58 407.99 441.92 412.96 433.62 C 409.96 433.60 406.97 433.62 403.98 433.71 L 403.88 432.64 C 407.25 432.66 410.63 432.66 414.00 432.47 Z" fill="#022434" opacity="1.00" stroke="#022434" stroke-width="0.25"/>
<path d="M 327.04 433.71 C 352.66 433.43 378.27 433.05 403.88 432.64 L 403.98 433.71 C 382.00 434.79 359.99 434.83 337.99 435.31 C 293.34 436.10 248.72 438.02 204.09 439.76 C 172.04 441.71 139.93 442.88 107.90 445.19 C 96.91 445.71 85.93 446.93 74.92 446.65 L 74.09 445.88 C 84.30 444.14 94.70 444.25 105.00 443.39 C 137.27 441.17 169.58 439.76 201.87 438.00 C 243.56 435.82 285.31 434.77 327.04 433.71 Z" fill="#111a24" opacity="1.00" stroke="#111a24" stroke-width="0.25"/>
<path d="M 420.30 432.91 C 427.25 432.32 434.24 432.55 441.22 432.58 C 443.53 436.63 446.52 441.07 444.98 445.97 C 443.30 450.45 440.62 454.68 440.47 459.60 C 437.31 457.44 434.17 455.20 431.57 452.36 C 433.62 451.47 435.67 450.59 437.72 449.70 C 437.96 447.29 437.79 444.77 438.63 442.49 C 439.79 440.35 443.19 438.08 440.22 435.83 C 434.77 432.75 428.09 433.98 422.11 434.13 C 422.02 434.59 421.84 435.52 421.75 435.98 C 421.27 434.95 420.78 433.93 420.30 432.91 Z" fill="#e8a551" opacity="1.00" stroke="#e8a551" stroke-width="0.25"/>
<path d="M 337.99 435.31 C 359.99 434.83 382.00 434.79 403.98 433.71 C 406.97 433.62 409.96 433.60 412.96 433.62 C 407.99 441.92 403.32 450.58 396.66 457.68 C 393.91 460.72 390.32 462.74 386.98 465.02 C 392.61 467.49 398.92 466.45 404.88 466.79 C 400.82 471.06 395.95 474.51 392.38 479.25 C 392.75 479.67 393.50 480.50 393.88 480.91 C 390.21 482.98 387.16 485.92 384.44 489.10 C 387.66 490.42 390.84 491.84 394.11 493.04 C 393.51 494.00 392.92 494.95 392.33 495.92 C 391.59 494.71 390.84 493.50 390.11 492.30 C 389.01 492.88 387.91 493.47 386.82 494.07 C 384.82 491.62 382.09 490.02 379.48 488.34 C 380.54 488.40 382.65 488.53 383.70 488.59 C 384.15 487.39 384.61 486.20 385.07 485.01 C 378.70 478.52 373.23 471.23 367.45 464.24 C 365.36 465.04 364.66 467.67 363.30 469.32 C 359.20 476.36 352.82 481.84 349.35 489.27 C 351.79 489.77 354.26 490.13 356.74 490.43 C 354.26 492.38 352.14 494.75 349.57 496.60 C 348.69 496.54 347.82 496.44 346.96 496.31 C 347.07 494.60 348.74 492.40 346.95 491.10 C 342.41 486.50 337.49 482.12 334.57 476.24 C 330.24 482.56 325.35 488.59 319.21 493.24 C 320.45 497.10 324.89 496.25 328.06 496.52 C 325.48 502.23 320.33 506.16 315.31 509.64 C 265.66 509.77 216.01 509.67 166.36 509.53 C 136.92 509.36 107.48 509.21 78.05 508.45 C 71.21 508.24 64.36 508.25 57.54 507.59 C 55.19 503.81 52.33 500.05 52.22 495.40 C 79.82 496.09 107.42 495.39 135.02 495.22 C 151.00 495.34 166.97 494.56 182.96 494.70 C 190.72 494.66 198.49 494.76 206.25 494.47 C 194.53 494.20 182.80 494.40 171.08 494.25 C 160.06 494.05 149.03 494.65 138.04 493.81 C 119.70 493.40 101.35 493.35 83.01 493.17 C 73.71 492.62 64.39 492.74 55.09 492.57 C 50.97 492.71 49.88 488.63 48.45 485.61 C 47.40 485.07 46.34 484.55 45.28 484.02 C 45.78 483.86 46.77 483.54 47.27 483.38 C 47.47 483.66 47.88 484.24 48.09 484.53 C 56.94 484.83 66.31 484.68 74.35 480.47 C 79.27 477.98 83.65 473.66 84.77 468.09 C 86.08 462.63 83.29 457.22 79.87 453.14 C 78.14 451.03 76.50 448.86 74.92 446.65 C 85.93 446.93 96.91 445.71 107.90 445.19 C 139.93 442.88 172.04 441.71 204.09 439.76 C 248.72 438.02 293.34 436.10 337.99 435.31 Z" fill="#ee9c63" opacity="1.00" stroke="#ee9c63" stroke-width="0.25"/>
<path d="M 422.11 434.13 C 428.09 433.98 434.77 432.75 440.22 435.83 C 443.19 438.08 439.79 440.35 438.63 442.49 C 437.79 444.77 437.96 447.29 437.72 449.70 C 435.67 450.59 433.62 451.47 431.57 452.36 C 427.31 447.57 424.55 441.69 421.75 435.98 C 421.84 435.52 422.02 434.59 422.11 434.13 Z" fill="#ef9d67" opacity="1.00" stroke="#ef9d67" stroke-width="0.25"/>
<path d="M 0.00 452.94 C 5.76 454.94 11.31 457.44 16.73 460.21 C 25.14 464.14 33.55 468.30 40.90 474.03 C 43.14 477.06 45.18 480.24 47.27 483.38 C 46.77 483.54 45.78 483.86 45.28 484.02 C 31.04 476.12 14.90 472.87 0.00 466.54 L 0.00 452.94 Z" fill="#debd25" opacity="1.00" stroke="#debd25" stroke-width="0.25"/>
<path d="M 76.97 462.95 C 79.97 460.63 79.29 456.45 79.87 453.14 C 83.29 457.22 86.08 462.63 84.77 468.09 C 83.65 473.66 79.27 477.98 74.35 480.47 C 66.31 484.68 56.94 484.83 48.09 484.53 C 47.88 484.24 47.47 483.66 47.27 483.38 C 45.18 480.24 43.14 477.06 40.90 474.03 C 44.10 475.15 47.52 476.49 50.96 475.78 C 54.38 475.02 56.57 472.09 58.73 469.60 C 64.07 465.56 71.38 466.40 76.97 462.95 Z" fill="#4f6729" opacity="1.00" stroke="#4f6729" stroke-width="0.25"/>
<path d="M 426.75 467.34 C 431.04 466.55 435.34 465.71 439.69 465.31 C 441.88 469.09 444.21 472.84 445.40 477.09 C 444.52 478.25 443.65 479.41 442.79 480.58 C 436.10 478.12 430.55 473.33 426.75 467.34 Z" fill="#e99d66" opacity="1.00" stroke="#e99d66" stroke-width="0.25"/>
<path d="M 0.00 466.54 C 14.90 472.87 31.04 476.12 45.28 484.02 C 46.34 484.55 47.40 485.07 48.45 485.61 C 49.88 488.63 50.97 492.71 55.09 492.57 C 54.36 492.64 52.91 492.79 52.18 492.86 C 52.19 493.49 52.21 494.76 52.22 495.40 C 52.33 500.05 55.19 503.81 57.54 507.59 C 57.86 508.71 58.15 509.85 58.40 511.00 L 57.71 512.00 L 0.00 512.00 L 0.00 466.54 Z" fill="#556c2c" opacity="1.00" stroke="#556c2c" stroke-width="0.25"/>
<path d="M 52.18 492.86 C 52.91 492.79 54.36 492.64 55.09 492.57 C 64.39 492.74 73.71 492.62 83.01 493.17 C 101.35 493.35 119.70 493.40 138.04 493.81 C 149.03 494.65 160.06 494.05 171.08 494.25 C 182.80 494.40 194.53 494.20 206.25 494.47 C 198.49 494.76 190.72 494.66 182.96 494.70 C 166.97 494.56 151.00 495.34 135.02 495.22 C 107.42 495.39 79.82 496.09 52.22 495.40 C 52.21 494.76 52.19 493.49 52.18 492.86 Z" fill="#080d0d" opacity="1.00" stroke="#080d0d" stroke-width="0.25"/>
<path d="M 340.61 495.94 C 342.65 495.72 347.48 496.13 344.99 499.10 C 343.00 499.05 341.93 497.12 340.61 495.94 Z" fill="#6e625e" opacity="1.00" stroke="#6e625e" stroke-width="0.25"/>
<path d="M 57.54 507.59 C 64.36 508.25 71.21 508.24 78.05 508.45 C 107.48 509.21 136.92 509.36 166.36 509.53 C 216.01 509.67 265.66 509.77 315.31 509.64 C 315.20 510.23 314.98 511.41 314.87 512.00 L 206.47 512.00 C 201.01 511.08 195.47 511.53 189.97 511.44 C 168.33 511.26 146.68 511.64 125.04 511.00 C 107.36 510.81 89.69 510.59 72.02 510.65 C 67.48 510.68 62.92 510.43 58.40 511.00 C 58.15 509.85 57.86 508.71 57.54 507.59 Z" fill="#101725" opacity="1.00" stroke="#101725" stroke-width="0.25"/>
<path d="M 58.40 511.00 C 62.92 510.43 67.48 510.68 72.02 510.65 C 89.69 510.59 107.36 510.81 125.04 511.00 C 146.68 511.64 168.33 511.26 189.97 511.44 C 195.47 511.53 201.01 511.08 206.47 512.00 L 57.71 512.00 L 58.40 511.00 Z" fill="#332b2a" opacity="1.00" stroke="#332b2a" stroke-width="0.25"/>
</svg>